<svg width="56" height="56" viewBox="0 0 56 56" fill="none" xmlns="http://www.w3.org/2000/svg">
<rect width="56" height="56" rx="5" fill="#EDE3FF"/>
<path fill-rule="evenodd" clip-rule="evenodd" d="M36 22.875C36 24.8641 35.2098 26.7718 33.8033 28.1783C32.3968 29.5848 30.4891 30.375 28.5 30.375C26.5109 30.375 24.6032 29.5848 23.1967 28.1783C21.7902 26.7718 21 24.8641 21 22.875C21 20.8859 21.7902 18.9782 23.1967 17.5717C24.6032 16.1652 26.5109 15.375 28.5 15.375C30.4891 15.375 32.3968 16.1652 33.8033 17.5717C35.2098 18.9782 36 20.8859 36 22.875ZM32.25 22.875C32.25 23.8696 31.8549 24.8234 31.1517 25.5267C30.4484 26.2299 29.4946 26.625 28.5 26.625C27.5054 26.625 26.5516 26.2299 25.8484 25.5267C25.1451 24.8234 24.75 23.8696 24.75 22.875C24.75 21.8804 25.1451 20.9266 25.8484 20.2233C26.5516 19.5201 27.5054 19.125 28.5 19.125C29.4946 19.125 30.4484 19.5201 31.1517 20.2233C31.8549 20.9266 32.25 21.8804 32.25 22.875Z" fill="#4C3770"/>
<path fill-rule="evenodd" clip-rule="evenodd" d="M28.5 7.875C17.1094 7.875 7.875 17.1094 7.875 28.5C7.875 39.8906 17.1094 49.125 28.5 49.125C39.8906 49.125 49.125 39.8906 49.125 28.5C49.125 17.1094 39.8906 7.875 28.5 7.875ZM11.625 28.5C11.625 32.4187 12.9619 36.0262 15.2025 38.8912C16.7765 36.8252 18.8065 35.1509 21.1343 33.9989C23.4621 32.8468 26.0246 32.2483 28.6219 32.25C31.1857 32.247 33.7164 32.8296 36.0209 33.9532C38.3254 35.0769 40.3428 36.7119 41.9194 38.7338C43.544 36.603 44.6378 34.116 45.1104 31.4786C45.583 28.8412 45.4208 26.1291 44.6372 23.5668C43.8535 21.0046 42.471 18.6657 40.604 16.7438C38.737 14.8219 36.4392 13.3722 33.9007 12.5147C31.3622 11.6572 28.656 11.4164 26.006 11.8124C23.356 12.2085 20.8384 13.2298 18.6614 14.792C16.4845 16.3542 14.7109 18.4123 13.4873 20.796C12.2637 23.1797 11.6253 25.8206 11.625 28.5ZM28.5 45.375C24.6261 45.3813 20.869 44.0486 17.865 41.6025C19.074 39.8712 20.6835 38.4576 22.5564 37.4821C24.4293 36.5066 26.5102 35.9982 28.6219 36C30.7072 35.9982 32.7629 36.494 34.6181 37.4462C36.4733 38.3984 38.0745 39.7796 39.2887 41.475C36.2615 44.0006 32.4425 45.3812 28.5 45.375Z" fill="#4C3770"/>
</svg>
