<?xml version="1.0" encoding="utf-8"?>
<!-- Generator: Adobe Illustrator 17.0.0, SVG Export Plug-In . SVG Version: 6.00 Build 0)  -->
<!DOCTYPE svg PUBLIC "-//W3C//DTD SVG 1.1//EN" "http://www.w3.org/Graphics/SVG/1.1/DTD/svg11.dtd">
<svg version="1.1" id="Layer_1" xmlns="http://www.w3.org/2000/svg" xmlns:xlink="http://www.w3.org/1999/xlink" x="0px" y="0px"
	 width="15.406px" height="15.219px" viewBox="0 0 15.406 15.219" enable-background="new 0 0 15.406 15.219" xml:space="preserve">
<path fill="#F06755" d="M9.838,2.731l-0.61-0.61H6.179l-0.61,0.61H3.434v1.22h8.538v-1.22H9.838z M5.544,7.536l0.86-0.86
	l1.299,1.293l1.293-1.293l0.86,0.86L8.563,8.829l1.293,1.293l-0.86,0.86L7.703,9.689L6.41,10.982l-0.86-0.86l1.293-1.293
	L5.544,7.536z M4.044,11.878c0,0.671,0.549,1.22,1.22,1.22h4.879c0.671,0,1.22-0.549,1.22-1.22V4.56H4.044V11.878z"/>
</svg>
