<svg width="56" height="56" viewBox="0 0 56 56" fill="none" xmlns="http://www.w3.org/2000/svg">
<rect width="56" height="56" rx="5" fill="#EDE3FF"/>
<path d="M18.125 40.625H36.875C36.75 39.0938 36.2813 37.6875 35.4688 36.4062C34.6562 35.125 33.5938 34.1094 32.2813 33.3594L34.0625 30.1719C34.125 30.0469 34.1406 29.9062 34.1094 29.75C34.0781 29.5937 33.9844 29.4844 33.8281 29.4219C33.7031 29.3594 33.57 29.3437 33.4287 29.375C33.2875 29.4063 33.1863 29.4844 33.125 29.6094L31.2969 32.8906C30.6719 32.6406 30.0469 32.4456 29.4219 32.3056C28.7969 32.1656 28.1562 32.095 27.5 32.0937C26.8438 32.0925 26.2031 32.1631 25.5781 32.3056C24.9531 32.4481 24.3281 32.6431 23.7031 32.8906L21.875 29.6094C21.8125 29.4531 21.7113 29.375 21.5713 29.375C21.4313 29.375 21.2825 29.4063 21.125 29.4688L20.9375 30.1719L22.7187 33.3594C21.4062 34.1094 20.3438 35.125 19.5312 36.4062C18.7187 37.6875 18.25 39.0938 18.125 40.625ZM23.2812 37.8125C23.0312 37.8125 22.8125 37.7188 22.625 37.5313C22.4375 37.3438 22.3438 37.125 22.3438 36.875C22.3438 36.625 22.4375 36.4062 22.625 36.2187C22.8125 36.0312 23.0312 35.9375 23.2812 35.9375C23.5313 35.9375 23.75 36.0312 23.9375 36.2187C24.125 36.4062 24.2188 36.625 24.2188 36.875C24.2188 37.125 24.125 37.3438 23.9375 37.5313C23.75 37.7188 23.5313 37.8125 23.2812 37.8125ZM31.7188 37.8125C31.4687 37.8125 31.25 37.7188 31.0625 37.5313C30.875 37.3438 30.7812 37.125 30.7812 36.875C30.7812 36.625 30.875 36.4062 31.0625 36.2187C31.25 36.0312 31.4687 35.9375 31.7188 35.9375C31.9688 35.9375 32.1875 36.0312 32.375 36.2187C32.5625 36.4062 32.6562 36.625 32.6562 36.875C32.6562 37.125 32.5625 37.3438 32.375 37.5313C32.1875 37.7188 31.9688 37.8125 31.7188 37.8125ZM12.5 46.25V8.75H31.25L42.5 20V46.25H12.5ZM29.375 21.875V12.5H16.25V42.5H38.75V21.875H29.375Z" fill="#4C3770"/>
</svg>
