<?xml version="1.0" encoding="utf-8"?>
<!-- Generator: Adobe Illustrator 17.0.0, SVG Export Plug-In . SVG Version: 6.00 Build 0)  -->
<!DOCTYPE svg PUBLIC "-//W3C//DTD SVG 1.1//EN" "http://www.w3.org/Graphics/SVG/1.1/DTD/svg11.dtd">
<svg version="1.1" id="Layer_1" xmlns="http://www.w3.org/2000/svg" xmlns:xlink="http://www.w3.org/1999/xlink" x="0px" y="0px"
	 width="15.406px" height="15.219px" viewBox="0 0 15.406 15.219" enable-background="new 0 0 15.406 15.219" xml:space="preserve">
<path fill="#2B8FC9" d="M4.822,10.489h0.823v0.622l-1.106,0.194l-0.533-0.533L4.2,9.666h0.622V10.489z M5.441,9.047
	c-0.094-0.094-0.094-0.245,0-0.339l2.641-2.641c0.094-0.094,0.245-0.094,0.339,0c0.094,0.094,0.094,0.245,0,0.339L5.781,9.047
	C5.686,9.141,5.536,9.141,5.441,9.047L5.441,9.047z M8.186,4.93L3.684,9.433L3.32,11.516c-0.05,0.281,0.195,0.525,0.477,0.477
	l2.083-0.365l4.503-4.503c0.081-0.081,0.081-0.211,0-0.292L8.48,4.93C8.397,4.849,8.267,4.849,8.186,4.93L8.186,4.93z M11.851,5.655
	l-0.79,0.79c-0.081,0.081-0.211,0.081-0.292,0L8.865,4.542c-0.081-0.081-0.081-0.211,0-0.291l0.79-0.791
	c0.321-0.321,0.842-0.321,1.164,0l1.031,1.031C12.173,4.812,12.173,5.333,11.851,5.655z"/>
</svg>
