<svg width="56" height="56" viewBox="0 0 56 56" fill="none" xmlns="http://www.w3.org/2000/svg">
<rect width="56" height="56" rx="5" fill="#EDE3FF"/>
<path d="M28.0001 44.668C32.4204 44.668 36.6596 42.912 39.7852 39.7864C42.9108 36.6608 44.6668 32.4216 44.6668 28.0013C44.6668 23.581 42.9108 19.3418 39.7852 16.2162C36.6596 13.0906 32.4204 11.3346 28.0001 11.3346C23.5798 11.3346 19.3406 13.0906 16.215 16.2162C13.0894 19.3418 11.3334 23.581 11.3334 28.0013C11.3334 32.4216 13.0894 36.6608 16.215 39.7864C19.3406 42.912 23.5798 44.668 28.0001 44.668ZM28.0001 7.16797C30.736 7.16797 33.445 7.70684 35.9727 8.75381C38.5003 9.80079 40.7969 11.3354 42.7315 13.2699C44.666 15.2045 46.2006 17.5011 47.2476 20.0287C48.2945 22.5563 48.8334 25.2654 48.8334 28.0013C48.8334 33.5266 46.6385 38.8257 42.7315 42.7327C38.8245 46.6397 33.5254 48.8346 28.0001 48.8346C16.4792 48.8346 7.16675 39.4596 7.16675 28.0013C7.16675 22.476 9.36168 17.1769 13.2687 13.2699C17.1757 9.3629 22.4747 7.16797 28.0001 7.16797ZM29.0417 17.5846V28.5221L38.4168 34.0846L36.8543 36.6471L25.9167 30.0846V17.5846H29.0417Z" fill="#4C3770"/>
</svg>
