<svg width="56" height="56" viewBox="0 0 56 56" fill="none" xmlns="http://www.w3.org/2000/svg">
<rect width="56" height="56" rx="5" fill="#EDE3FF"/>
<path d="M43.9688 29.5677V27.4161L46.6688 25.0536C47.1665 24.615 47.4931 24.0145 47.5909 23.3583C47.6887 22.7021 47.5513 22.0324 47.2031 21.4677L43.8844 15.8427C43.6378 15.4156 43.2832 15.0608 42.8562 14.814C42.4292 14.5672 41.9448 14.437 41.4516 14.4365C41.1459 14.4341 40.8419 14.4816 40.5516 14.5771L37.1344 15.7302C36.5452 15.3369 35.9297 14.9845 35.2922 14.6755L34.575 11.1318C34.4464 10.4843 34.0942 9.90276 33.58 9.48885C33.0659 9.07494 32.4225 8.85506 31.7625 8.8677H25.1813C24.5213 8.85506 23.8779 9.07494 23.3638 9.48885C22.8496 9.90276 22.4974 10.4843 22.3688 11.1318L21.6516 14.6755C21.0103 14.9858 20.3902 15.3381 19.7953 15.7302L16.4485 14.5208C16.155 14.4444 15.851 14.4159 15.5485 14.4365C15.0552 14.437 14.5708 14.5672 14.1438 14.814C13.7168 15.0608 13.3622 15.4156 13.1156 15.8427L9.79689 21.4677C9.46866 22.0316 9.34669 22.6921 9.45187 23.336C9.55705 23.9799 9.88285 24.5673 10.3735 24.9974L13.0313 27.4302V29.5818L10.3735 31.9443C9.86899 32.3774 9.53428 32.9752 9.42874 33.6317C9.32319 34.2882 9.45362 34.9608 9.79689 35.5302L13.1156 41.1552C13.3622 41.5823 13.7168 41.9371 14.1438 42.1839C14.5708 42.4308 15.0552 42.561 15.5485 42.5615C15.8541 42.5638 16.1581 42.5163 16.4485 42.4208L19.8656 41.2677C20.4548 41.661 21.0703 42.0134 21.7078 42.3224L22.425 45.8661C22.5536 46.5136 22.9058 47.0951 23.42 47.5091C23.9342 47.923 24.5776 48.1429 25.2375 48.1302H31.875C32.535 48.1429 33.1784 47.923 33.6925 47.5091C34.2067 47.0951 34.5589 46.5136 34.6875 45.8661L35.4047 42.3224C36.046 42.0121 36.6661 41.6598 37.261 41.2677L40.6641 42.4208C40.9544 42.5163 41.2584 42.5638 41.5641 42.5615C42.0573 42.561 42.5417 42.4308 42.9687 42.1839C43.3957 41.9371 43.7503 41.5823 43.9969 41.1552L47.2031 35.5302C47.5314 34.9663 47.6534 34.3058 47.5482 33.6619C47.443 33.018 47.1172 32.4307 46.6266 32.0005L43.9688 29.5677ZM41.4516 39.749L36.6281 38.1177C35.4983 39.0731 34.208 39.8206 32.8172 40.3255L31.8188 45.374H25.1813L24.1828 40.3818C22.8029 39.8627 21.5196 39.1165 20.386 38.174L15.5485 39.749L12.2297 34.124L16.0547 30.749C15.7947 29.2933 15.7947 27.8031 16.0547 26.3474L12.2297 22.874L15.5485 17.249L20.3719 18.8802C21.5017 17.9248 22.792 17.1773 24.1828 16.6724L25.1813 11.624H31.8188L32.8172 16.6161C34.1971 17.1352 35.4804 17.8814 36.6141 18.824L41.4516 17.249L44.7703 22.874L40.9453 26.249C41.2054 27.7046 41.2054 29.1949 40.9453 30.6505L44.7703 34.124L41.4516 39.749Z" fill="#4C3770"/>
<path d="M28.5 36.9375C26.8312 36.9375 25.1999 36.4427 23.8124 35.5155C22.4248 34.5884 21.3434 33.2706 20.7048 31.7289C20.0662 30.1871 19.8991 28.4906 20.2246 26.8539C20.5502 25.2172 21.3538 23.7138 22.5338 22.5338C23.7138 21.3538 25.2172 20.5502 26.8539 20.2246C28.4906 19.8991 30.1871 20.0662 31.7289 20.7048C33.2706 21.3434 34.5884 22.4248 35.5155 23.8124C36.4427 25.1999 36.9375 26.8312 36.9375 28.5C36.9488 29.6112 36.7382 30.7134 36.3182 31.7422C35.8982 32.771 35.2771 33.7056 34.4914 34.4914C33.7056 35.2771 32.771 35.8982 31.7422 36.3182C30.7134 36.7382 29.6112 36.9488 28.5 36.9375ZM28.5 22.875C27.7566 22.8577 27.0174 22.9913 26.3271 23.2679C25.6368 23.5444 25.0098 23.9581 24.484 24.484C23.9581 25.0098 23.5444 25.6368 23.2679 26.3271C22.9913 27.0174 22.8577 27.7566 22.875 28.5C22.8577 29.2434 22.9913 29.9826 23.2679 30.6729C23.5444 31.3632 23.9581 31.9902 24.484 32.516C25.0098 33.0419 25.6368 33.4556 26.3271 33.7321C27.0174 34.0087 27.7566 34.1423 28.5 34.125C29.2434 34.1423 29.9826 34.0087 30.6729 33.7321C31.3632 33.4556 31.9902 33.0419 32.516 32.516C33.0419 31.9902 33.4556 31.3632 33.7321 30.6729C34.0087 29.9826 34.1423 29.2434 34.125 28.5C34.1423 27.7566 34.0087 27.0174 33.7321 26.3271C33.4556 25.6368 33.0419 25.0098 32.516 24.484C31.9902 23.9581 31.3632 23.5444 30.6729 23.2679C29.9826 22.9913 29.2434 22.8577 28.5 22.875Z" fill="#4C3770"/>
</svg>
