<svg width="56" height="56" viewBox="0 0 56 56" fill="none" xmlns="http://www.w3.org/2000/svg">
<rect width="56" height="56" rx="5" fill="#EDE3FF"/>
<path d="M32.1875 11.6266C30.9443 11.6266 29.752 12.1205 28.8729 12.9996C27.9939 13.8786 27.5 15.0709 27.5 16.3141C27.5 17.5573 27.9939 18.7496 28.8729 19.6287C29.752 20.5078 30.9443 21.0016 32.1875 21.0016C33.4307 21.0016 34.623 20.5078 35.5021 19.6287C36.3811 18.7496 36.875 17.5573 36.875 16.3141C36.875 15.0709 36.3811 13.8786 35.5021 12.9996C34.623 12.1205 33.4307 11.6266 32.1875 11.6266ZM23.75 16.3141C23.7497 14.878 24.116 13.4655 24.8142 12.2105C25.5124 10.9555 26.5194 9.89947 27.7399 9.14244C28.9603 8.3854 30.3537 7.9524 31.7883 7.88445C33.2228 7.8165 34.651 8.11584 35.9375 8.75413C37.2239 8.1166 38.6517 7.81787 40.0858 7.8862C41.5198 7.95452 42.9128 8.38766 44.1327 9.14461C45.3527 9.90156 46.3593 10.9573 47.0573 12.2119C47.7554 13.4665 48.1217 14.8784 48.1217 16.3141C48.1217 17.7498 47.7554 19.1618 47.0573 20.4164C46.3593 21.671 45.3527 22.7267 44.1327 23.4837C42.9128 24.2406 41.5198 24.6737 40.0858 24.7421C38.6517 24.8104 37.2239 24.5117 35.9375 23.8741C34.651 24.5124 33.2228 24.8118 31.7883 24.7438C30.3537 24.6759 28.9603 24.2429 27.7399 23.4858C26.5194 22.7288 25.5124 21.6728 24.8142 20.4178C24.116 19.1627 23.7497 17.7503 23.75 16.3141ZM39.2187 20.9791C39.3725 20.9941 39.5287 21.0016 39.6875 21.0016C40.322 21.0003 40.9496 20.8701 41.5323 20.619C42.1149 20.368 42.6406 20.0012 43.0774 19.541C43.5141 19.0808 43.8529 18.5367 44.0732 17.9417C44.2935 17.3467 44.3907 16.7132 44.359 16.0795C44.3272 15.4458 44.1672 14.8252 43.8885 14.2552C43.6098 13.6852 43.2183 13.1777 42.7377 12.7635C42.2571 12.3493 41.6974 12.0369 41.0925 11.8454C40.4876 11.6538 39.8502 11.5871 39.2187 11.6491C40.136 13.032 40.6252 14.6547 40.625 16.3141C40.6252 17.9736 40.136 19.5963 39.2187 20.9791ZM20.8156 30.8454C20.5078 30.8446 20.2028 30.9045 19.918 31.0216C19.6333 31.1387 19.3745 31.3107 19.1562 31.5279L15.3125 35.3716V42.5641H25.8631L36.7437 39.8454L43.3662 37.0179C43.5918 36.896 43.7644 36.6951 43.851 36.4537C43.9376 36.2124 43.932 35.9476 43.8353 35.7101C43.7386 35.4726 43.5577 35.2792 43.3272 35.1669C43.0967 35.0546 42.8328 35.0314 42.5862 35.1016L42.5487 35.111L30.5262 37.8766H23.75V34.1266H29.6094C30.0445 34.1266 30.4618 33.9538 30.7695 33.6461C31.0771 33.3384 31.25 32.9211 31.25 32.486C31.25 32.0509 31.0771 31.6336 30.7695 31.3259C30.4618 31.0182 30.0445 30.8454 29.6094 30.8454H20.8156ZM34.9756 33.0054L41.6356 31.4735C42.345 31.287 43.0876 31.2655 43.8065 31.4107C44.5254 31.5559 45.2015 31.8639 45.7829 32.3111C46.3642 32.7583 46.8353 33.3328 47.1601 33.9904C47.4848 34.648 47.6546 35.3713 47.6562 36.1048C47.6555 36.9951 47.4071 37.8677 46.9389 38.6249C46.4707 39.3822 45.8011 39.9943 45.005 40.3929L44.9544 40.4191L37.9419 43.4098L26.3244 46.3141H5V32.7204H12.6612L16.5087 28.8729C17.0756 28.3079 17.7483 27.8602 18.4882 27.5552C19.2281 27.2502 20.0209 27.094 20.8212 27.0954H29.6094C30.3611 27.0953 31.1046 27.2524 31.792 27.5567C32.4795 27.861 33.0956 28.3057 33.601 28.8623C34.1063 29.4188 34.4897 30.0749 34.7264 30.7885C34.9632 31.502 35.0481 32.2571 34.9756 33.0054ZM11.5625 36.4704H8.75V42.5641H11.5625V36.4704Z" fill="#4C3770"/>
</svg>
