<svg width="50" height="50" viewBox="0 0 50 50" fill="none" xmlns="http://www.w3.org/2000/svg">
<path d="M16.6666 25.0013V20.8346H33.3333V25.0013H16.6666ZM16.6666 16.668V12.5013H33.3333V16.668H16.6666ZM12.4999 29.168H28.1249C29.1319 29.168 30.0694 29.3853 30.9374 29.8201C31.8055 30.2548 32.5346 30.8707 33.1249 31.668L37.4999 37.3971V8.33464H12.4999V29.168ZM12.4999 41.668H35.5207L29.8437 34.2201C29.6353 33.9423 29.3839 33.7256 29.0895 33.5701C28.7951 33.4145 28.4735 33.336 28.1249 33.3346H12.4999V41.668ZM37.4999 45.8346H12.4999C11.3541 45.8346 10.3735 45.427 9.55825 44.6117C8.74297 43.7964 8.33464 42.8152 8.33325 41.668V8.33464C8.33325 7.1888 8.74158 6.20825 9.55825 5.39297C10.3749 4.57769 11.3555 4.16936 12.4999 4.16797H37.4999C38.6458 4.16797 39.627 4.5763 40.4437 5.39297C41.2603 6.20964 41.668 7.19019 41.6666 8.33464V41.668C41.6666 42.8138 41.2589 43.7951 40.4437 44.6117C39.6284 45.4284 38.6471 45.836 37.4999 45.8346Z" fill="#4C3770"/>
</svg>
