<svg width="81" height="81" viewBox="0 0 81 81" fill="none" xmlns="http://www.w3.org/2000/svg">
<path d="M32.8299 19.6732H33.8299V18.6732V11.7461C33.8299 10.6364 34.6992 9.77734 35.7466 9.77734H41.58C42.6275 9.77734 43.4967 10.6364 43.4967 11.7461V18.6732V19.6732H44.4967H51.3024C52.3498 19.6732 53.2191 20.5323 53.2191 21.6419V27.5794C53.2191 28.6891 52.3498 29.5482 51.3024 29.5482H44.4967H43.4967V30.5482V37.4753C43.4967 38.5849 42.6275 39.444 41.58 39.444H35.7466C34.6992 39.444 33.8299 38.5849 33.8299 37.4753V30.5482V29.5482H32.8299H26.0243C24.9769 29.5482 24.1076 28.6891 24.1076 27.5794V21.6419C24.1076 20.5323 24.9769 19.6732 26.0243 19.6732H32.8299ZM73.0277 56.4913L70.6243 58.2917H70.6398L57.6548 68.032C57.6546 68.0321 57.6544 68.0322 57.6542 68.0324C54.9818 70.0316 51.7525 71.1107 48.4464 71.1107H9.49635C7.91417 71.1107 6.60742 69.8062 6.60742 68.1523V60.2357C6.60742 58.5817 7.91418 57.2773 9.49635 57.2773H13.9686H14.3249L14.6009 57.0521L20.0554 52.6007C20.0555 52.6006 20.0556 52.6006 20.0557 52.6005C22.6379 50.5049 25.8429 49.3607 29.1476 49.3607H48.3857C49.9678 49.3607 51.2746 50.6651 51.2746 52.319C51.2746 53.9729 49.9678 55.2773 48.3857 55.2773H38.6633C37.025 55.2773 35.7189 56.6324 35.7189 58.2565C35.7189 59.8806 37.025 61.2357 38.6633 61.2357H53.3197H53.6531L53.9197 61.0357L68.4663 50.1259C70.1783 48.8435 72.5824 49.2099 73.8499 50.9629C75.1251 52.7265 74.7502 55.201 73.0277 56.4913Z" stroke="#27296C" stroke-width="2"/>
</svg>
