<svg width="81" height="81" viewBox="0 0 81 81" fill="none" xmlns="http://www.w3.org/2000/svg">
<path d="M69.3211 36.6672C68.4096 30.3074 65.4132 24.4299 60.8015 19.9565C56.1878 15.481 50.2186 12.6641 43.8309 11.9479L42.9423 11.8483V10.9542V10.8007L42.9226 10.4718C42.8506 9.91429 42.5796 9.40114 42.159 9.02717C41.732 8.64742 41.1804 8.43761 40.6089 8.4375L69.3211 36.6672ZM69.3211 36.6672L69.4334 37.562L69.5432 38.4375H70.4256H70.6078C71.2026 38.4382 71.7746 38.6659 72.207 39.0742C72.6395 39.4824 72.8997 40.0404 72.9346 40.6341C72.9694 41.2278 72.7763 41.8124 72.3946 42.2685C72.0186 42.7177 71.4876 43.0088 70.9074 43.0845L70.5791 43.1042H70.4256H69.5315L69.4318 43.9928C68.7157 50.3805 65.8988 56.3497 61.4233 60.9634C56.9498 65.5751 51.0723 68.5715 44.7126 69.483L43.8178 69.5953L42.9423 69.7051V70.5875V70.7697C42.9416 71.3645 42.7139 71.9365 42.3056 72.3689C41.8974 72.8014 41.3394 73.0616 40.7457 73.0965C40.152 73.1313 39.5674 72.9382 39.1113 72.5565C38.6621 72.1805 38.371 71.6495 38.2952 71.0693L38.2756 70.741V70.5875V69.6934L37.387 69.5937C30.9993 68.8776 25.0301 66.0607 20.4164 61.5852C15.8047 57.1117 12.8082 51.2342 11.8967 44.8744L11.7845 43.9797L11.6747 43.1042H10.7923H10.61C10.0153 43.1035 9.44331 42.8758 9.01085 42.4675C8.5784 42.0593 8.31816 41.5013 8.28331 40.9076C8.24846 40.3139 8.44162 39.7293 8.82333 39.2732C9.19932 38.824 9.7303 38.5329 10.3105 38.4571L10.6388 38.4375H10.7923H11.6864L11.786 37.5489C12.5022 31.1612 15.3191 25.192 19.7946 20.5783C24.2681 15.9666 30.1456 12.9701 36.5054 12.0586L37.4001 11.9464L38.2756 11.8365V10.9542V10.7708C38.2756 10.152 38.5214 9.5585 38.959 9.12092L38.2519 8.41381L38.959 9.12092C39.3966 8.68336 39.99 8.43754 40.6088 8.4375L69.3211 36.6672ZM40.6089 23.1042C35.9234 23.1042 31.4299 24.9655 28.1167 28.2786C24.8036 31.5918 22.9423 36.0853 22.9423 40.7708C22.9423 45.4563 24.8036 49.9499 28.1167 53.2631C31.4299 56.5762 35.9234 58.4375 40.6089 58.4375C45.2944 58.4375 49.788 56.5762 53.1012 53.2631C56.4143 49.9499 58.2756 45.4563 58.2756 40.7708C58.2756 36.0853 56.4143 31.5918 53.1012 28.2786C49.788 24.9655 45.2944 23.1042 40.6089 23.1042Z" stroke="#27296C" stroke-width="2"/>
</svg>
