<svg width="81" height="81" viewBox="0 0 81 81" fill="none" xmlns="http://www.w3.org/2000/svg">
<path d="M40.2305 50.0626C52.8187 50.0626 63.0235 39.8578 63.0235 27.2696C63.0235 14.6813 52.8187 4.47656 40.2305 4.47656C27.6423 4.47656 17.4375 14.6813 17.4375 27.2696C17.4375 39.8578 27.6423 50.0626 40.2305 50.0626Z" stroke="#27296C" stroke-width="2" stroke-linecap="round" stroke-linejoin="round"/>
<path d="M55.5107 27.269C55.5107 35.7083 48.6693 42.5497 40.2299 42.5497C31.7906 42.5497 24.9492 35.7083 24.9492 27.269C24.9492 18.8297 31.7906 11.9883 40.2299 11.9883C48.6693 11.9883 55.5107 18.8297 55.5107 27.269Z" stroke="#27296C" stroke-width="2" stroke-linecap="round" stroke-linejoin="round"/>
<path d="M27.8892 46.4486L23.9492 76.1121L40.2299 66.3436L56.5107 76.1121L52.5707 46.416" stroke="#27296C" stroke-width="2" stroke-linecap="round" stroke-linejoin="round"/>
</svg>
