<svg width="81" height="81" viewBox="0 0 81 81" fill="none" xmlns="http://www.w3.org/2000/svg">
<path d="M40.3768 73.7799C40.3768 73.7799 67.8277 60.4466 67.8277 40.4466V17.1133L40.3768 7.11328L12.9258 17.1133V40.4466C12.9258 60.4466 40.3768 73.7799 40.3768 73.7799Z" stroke="#27296C" stroke-width="2.5" stroke-linecap="round" stroke-linejoin="round"/>
<path d="M40.7244 64.3619C40.5957 64.4293 40.4796 64.4892 40.3772 64.5415C40.2748 64.4892 40.1588 64.4293 40.0301 64.3619C39.4569 64.0619 38.6333 63.6143 37.643 63.0292C35.6597 61.8572 33.0214 60.1416 30.3897 57.9645C25.0622 53.5572 20.0586 47.5066 20.0586 40.4472V23.4871L40.3772 16.2833L60.6958 23.4871V40.4472C60.6958 47.5066 55.6923 53.5572 50.3648 57.9645C47.733 60.1416 45.0948 61.8572 43.1114 63.0292C42.1211 63.6143 41.2976 64.0619 40.7244 64.3619Z" stroke="#27296C" stroke-width="2.5" stroke-linecap="round" stroke-linejoin="round"/>
</svg>
