<svg width="56" height="56" viewBox="0 0 56 56" fill="none" xmlns="http://www.w3.org/2000/svg">
<rect width="56" height="56" rx="5" fill="#EDE3FF"/>
<path d="M19.6666 7.16797H36.3333C39.6485 7.16797 42.8279 8.48493 45.1721 10.8291C47.5163 13.1733 48.8333 16.3528 48.8333 19.668V36.3346C48.8333 39.6498 47.5163 42.8293 45.1721 45.1735C42.8279 47.5177 39.6485 48.8346 36.3333 48.8346H19.6666C16.3514 48.8346 13.172 47.5177 10.8278 45.1735C8.48359 42.8293 7.16663 39.6498 7.16663 36.3346L7.16663 19.668C7.16663 16.3528 8.48359 13.1733 10.8278 10.8291C13.172 8.48493 16.3514 7.16797 19.6666 7.16797ZM19.6666 11.3346C17.4565 11.3346 15.3369 12.2126 13.7741 13.7754C12.2113 15.3382 11.3333 17.4578 11.3333 19.668V36.3346C11.3333 38.5448 12.2113 40.6644 13.7741 42.2272C15.3369 43.79 17.4565 44.668 19.6666 44.668H36.3333C38.5434 44.668 40.663 43.79 42.2259 42.2272C43.7887 40.6644 44.6666 38.5448 44.6666 36.3346V19.668C44.6666 17.4578 43.7887 15.3382 42.2259 13.7754C40.663 12.2126 38.5434 11.3346 36.3333 11.3346H19.6666ZM32.1666 25.918H38.4166C38.9692 25.918 39.4991 26.1375 39.8898 26.5282C40.2805 26.9189 40.5 27.4488 40.5 28.0013C40.5 28.5538 40.2805 29.0837 39.8898 29.4744C39.4991 29.8651 38.9692 30.0846 38.4166 30.0846H32.1666C31.6141 30.0846 31.0842 29.8651 30.6935 29.4744C30.3028 29.0837 30.0833 28.5538 30.0833 28.0013C30.0833 27.4488 30.3028 26.9189 30.6935 26.5282C31.0842 26.1375 31.6141 25.918 32.1666 25.918ZM28 34.2513H38.4166C38.9692 34.2513 39.4991 34.4708 39.8898 34.8615C40.2805 35.2522 40.5 35.7821 40.5 36.3346C40.5 36.8872 40.2805 37.4171 39.8898 37.8078C39.4991 38.1985 38.9692 38.418 38.4166 38.418H28C27.4474 38.418 26.9175 38.1985 26.5268 37.8078C26.1361 37.4171 25.9166 36.8872 25.9166 36.3346C25.9166 35.7821 26.1361 35.2522 26.5268 34.8615C26.9175 34.4708 27.4474 34.2513 28 34.2513ZM28 17.5846H38.4166C38.9692 17.5846 39.4991 17.8041 39.8898 18.1948C40.2805 18.5855 40.5 19.1154 40.5 19.668C40.5 20.2205 40.2805 20.7504 39.8898 21.1411C39.4991 21.5318 38.9692 21.7513 38.4166 21.7513H28C27.4474 21.7513 26.9175 21.5318 26.5268 21.1411C26.1361 20.7504 25.9166 20.2205 25.9166 19.668C25.9166 19.1154 26.1361 18.5855 26.5268 18.1948C26.9175 17.8041 27.4474 17.5846 28 17.5846ZM19.3083 28.5076L23.7291 24.0846C23.9227 23.8912 24.1525 23.7378 24.4053 23.6332C24.6582 23.5285 24.9291 23.4747 25.2028 23.4748C25.4764 23.4749 25.7474 23.5289 26.0001 23.6337C26.2529 23.7385 26.4826 23.8921 26.676 24.0857C26.8694 24.2792 27.0228 24.509 27.1275 24.7619C27.2321 25.0147 27.2859 25.2857 27.2858 25.5593C27.2857 25.833 27.2317 26.1039 27.1269 26.3567C27.0221 26.6095 26.8685 26.8391 26.675 27.0326L20.7833 32.9242C20.5898 33.1179 20.36 33.2716 20.1071 33.3764C19.8542 33.4813 19.5831 33.5352 19.3093 33.5352C19.0356 33.5352 18.7645 33.4813 18.5115 33.3764C18.2586 33.2716 18.0289 33.1179 17.8354 32.9242L14.8895 29.9805C14.51 29.5875 14.3001 29.0613 14.3048 28.5151C14.3096 27.9688 14.5287 27.4463 14.9149 27.06C15.3012 26.6737 15.8237 26.4546 16.37 26.4499C16.9162 26.4452 17.4425 26.6551 17.8354 27.0346L19.3083 28.5076Z" fill="#4C3770"/>
</svg>
