<svg width="13" height="17" viewBox="0 0 13 17" fill="none" xmlns="http://www.w3.org/2000/svg">
<path d="M3.98602 1.06597L3.27002 1.28197C2.63142 1.47434 2.06107 1.84516 1.62613 2.35079C1.19119 2.85641 0.90978 3.47578 0.815024 4.13597C0.518024 6.20397 1.18202 8.62197 2.78302 11.395C4.38002 14.161 6.13802 15.943 8.07302 16.723C8.69475 16.9735 9.37536 17.0403 10.0339 16.9153C10.6925 16.7904 11.3013 16.4789 11.788 16.018L12.331 15.504C12.6828 15.1707 12.9017 14.7211 12.9469 14.2387C12.9922 13.7563 12.8607 13.2738 12.577 12.881L11.221 11.001C11.0377 10.7472 10.7795 10.5571 10.4828 10.4574C10.186 10.3577 9.86541 10.3533 9.56602 10.445L7.51502 11.072L7.46202 11.082C7.23602 11.115 6.71502 10.626 6.06502 9.49997C5.38502 8.32197 5.24302 7.63297 5.43102 7.45497L6.47502 6.48197C6.85627 6.12631 7.11662 5.66024 7.21956 5.14912C7.3225 4.638 7.26287 4.10748 7.04902 3.63197L6.38902 2.16097C6.18992 1.71787 5.83635 1.36239 5.39434 1.16089C4.95233 0.95939 4.45209 0.92565 3.98702 1.06597H3.98602ZM5.47602 2.57097L6.13702 4.04197C6.26556 4.3272 6.3015 4.64554 6.2398 4.95225C6.1781 5.25896 6.02186 5.53863 5.79302 5.75197L4.74702 6.72597C4.07702 7.35897 4.29902 8.44197 5.19802 9.99997C6.04502 11.466 6.81702 12.19 7.64602 12.064L7.77002 12.038L9.85802 11.401C9.95783 11.3703 10.0647 11.3717 10.1637 11.4048C10.2627 11.438 10.3489 11.5014 10.41 11.586L11.766 13.466C11.908 13.6624 11.9738 13.9038 11.9512 14.1451C11.9286 14.3864 11.8191 14.6113 11.643 14.778L11.1 15.292C10.7524 15.621 10.3176 15.8433 9.84728 15.9325C9.37699 16.0216 8.89099 15.9739 8.44702 15.795C6.74902 15.111 5.14402 13.484 3.64902 10.895C2.15102 8.29997 1.54502 6.09297 1.80502 4.27797C1.87266 3.80628 2.0737 3.36374 2.38446 3.0025C2.69521 2.64125 3.10274 2.37634 3.55902 2.23897L4.27602 2.02297C4.50848 1.95312 4.75841 1.9702 4.9792 2.07103C5.2 2.17186 5.37658 2.34955 5.47602 2.57097Z" fill="#0078E6"/>
</svg>
