<?xml version="1.0" encoding="utf-8"?>
<!-- Generator: Adobe Illustrator 17.0.0, SVG Export Plug-In . SVG Version: 6.00 Build 0)  -->
<!DOCTYPE svg PUBLIC "-//W3C//DTD SVG 1.1//EN" "http://www.w3.org/Graphics/SVG/1.1/DTD/svg11.dtd">
<svg version="1.1" id="Layer_1" xmlns="http://www.w3.org/2000/svg" xmlns:xlink="http://www.w3.org/1999/xlink" x="0px" y="0px"
	 width="25px" height="25px" viewBox="0 0 25 25" enable-background="new 0 0 25 25" xml:space="preserve">
<g>
	<path fill="#FFFFFF" d="M7.895,20.007c0-2.62,0-5.241,0-7.861c0.034-0.008,0.028-0.037,0.034-0.061
		c0.241-0.912,0.88-1.406,1.825-1.407c0.554-0.001,1.107,0.001,1.661-0.001c0.128-0.001,0.293,0.056,0.374-0.023
		c0.081-0.08,0.026-0.246,0.024-0.373c-0.006-0.304,0.019-0.602,0.16-0.875c0.303-0.588,0.793-0.876,1.453-0.877
		c1.242,0,2.484-0.001,3.726,0c0.44,0,0.88-0.008,1.319,0.01c0.584,0.024,1.141,0.479,1.325,1.035
		c0.104,0.314,0.089,0.633,0.084,0.952c-0.002,0.123,0.033,0.153,0.154,0.153c0.693-0.005,1.387-0.016,2.08,0.005
		c0.695,0.022,1.194,0.376,1.516,0.99c0.084,0.16,0.103,0.339,0.173,0.502c0,2.61,0,5.22,0,7.83
		c-0.049,0.138-0.086,0.282-0.148,0.413c-0.341,0.719-0.917,1.06-1.709,1.06c-4.065-0.002-8.129-0.001-12.194-0.001
		c-0.062,0-0.124-0.002-0.186-0.005c-0.742-0.037-1.364-0.519-1.591-1.226C7.95,20.167,7.958,20.075,7.895,20.007z M15.849,19.964
		c2.127,0.004,3.876-1.741,3.885-3.877c0.009-2.135-1.74-3.889-3.882-3.893c-2.129-0.005-3.877,1.738-3.886,3.875
		C11.957,18.201,13.71,19.96,15.849,19.964z"/>
	<path fill="#FFFFFF" d="M13.285,16.077c0.002-1.413,1.159-2.567,2.57-2.564c1.412,0.003,2.574,1.171,2.561,2.573
		c-0.013,1.423-1.163,2.563-2.577,2.555C14.43,18.634,13.282,17.482,13.285,16.077z"/>
</g>
<g>
	<rect x="3.673" y="3.372" fill="#FFFFFF" width="1.893" height="8.574"/>
	<rect x="0.332" y="6.712" fill="#FFFFFF" width="8.574" height="1.893"/>
</g>
</svg>
