<svg width="35" height="35" viewBox="0 0 35 35" fill="none" xmlns="http://www.w3.org/2000/svg">
<path d="M29.0232 5.97537C27.446 4.39471 25.5721 3.14122 23.509 2.28691C21.4459 1.4326 19.2344 0.99431 17.0014 0.997207C7.61175 0.997207 0 8.60896 0 17.9986C0 22.6935 1.904 26.9449 4.981 30.0219C6.55822 31.6025 8.43218 32.856 10.4953 33.7103C12.5583 34.5646 14.7699 35.0029 17.0028 35C26.3925 35 34.0042 27.3883 34.0042 17.9986C34.0042 13.3038 32.1002 9.05237 29.0232 5.97537ZM26.8387 27.8303C25.5485 29.1239 24.0153 30.1497 22.3274 30.8489C20.6394 31.5481 18.8299 31.9069 17.0028 31.9046C9.32025 31.9046 3.09258 25.677 3.09258 17.9944C3.09029 16.1673 3.44906 14.3578 4.14827 12.6699C4.84747 10.9819 5.87334 9.44872 7.16692 8.15846C8.45687 6.86486 9.98978 5.83897 11.6775 5.13975C13.3653 4.44054 15.1746 4.08179 17.0014 4.08412C24.6826 4.08412 30.9102 10.3118 30.9102 17.993C30.9127 19.8198 30.5539 21.6291 29.8547 23.3169C29.1555 25.0046 28.1296 26.5375 26.8359 27.8275L26.8387 27.8303Z" fill="#F34129"/>
<path d="M19.187 17.9999L24.6482 12.5387C24.9176 12.2451 25.0632 11.8587 25.0545 11.4603C25.0459 11.0619 24.8837 10.6823 24.6019 10.4006C24.32 10.1189 23.9402 9.95697 23.5418 9.94859C23.1434 9.94021 22.7572 10.086 22.4637 10.3556L22.4651 10.3542L17.0039 15.8154L11.5426 10.3542C11.249 10.0848 10.8627 9.93924 10.4643 9.94787C10.0659 9.95651 9.68621 10.1187 9.40453 10.4006C9.12284 10.6824 8.96091 11.0622 8.95253 11.4606C8.94415 11.859 9.08997 12.2452 9.35956 12.5387L9.35814 12.5373L14.8194 17.9985L9.35814 23.4598C9.20448 23.6007 9.08094 23.7714 8.99495 23.9613C8.90896 24.1513 8.86231 24.3567 8.85779 24.5652C8.85326 24.7736 8.89098 24.9809 8.96865 25.1744C9.04633 25.3679 9.16236 25.5437 9.30976 25.6912C9.45716 25.8387 9.63288 25.9549 9.82635 26.0327C10.0198 26.1105 10.227 26.1483 10.4355 26.1439C10.644 26.1395 10.8494 26.093 11.0394 26.0071C11.2295 25.9213 11.4002 25.7978 11.5412 25.6443L11.5426 25.6429L17.0039 20.1816L22.4651 25.6429C22.6061 25.7965 22.7767 25.9201 22.9667 26.0061C23.1567 26.092 23.3621 26.1387 23.5705 26.1432C23.779 26.1477 23.9862 26.11 24.1798 26.0324C24.3733 25.9547 24.5491 25.8386 24.6966 25.6912C24.8441 25.5438 24.9602 25.3681 25.038 25.1747C25.1158 24.9812 25.1537 24.774 25.1493 24.5655C25.1449 24.357 25.0984 24.1516 25.0125 23.9616C24.9266 23.7715 24.8032 23.6008 24.6496 23.4598L24.6482 23.4584L19.187 17.9999Z" fill="#F34129"/>
</svg>
