<svg width="56" height="56" viewBox="0 0 56 56" fill="none" xmlns="http://www.w3.org/2000/svg">
<rect width="56" height="56" rx="5" fill="#EDE3FF"/>
<path d="M13.4167 48.8346H42.5833C44.8812 48.8346 46.75 46.9659 46.75 44.668V13.418C46.75 11.1201 44.8812 9.2513 42.5833 9.2513H38.4167C38.4167 8.69877 38.1972 8.16886 37.8065 7.77816C37.4158 7.38746 36.8859 7.16797 36.3333 7.16797H19.6667C19.1141 7.16797 18.5842 7.38746 18.1935 7.77816C17.8028 8.16886 17.5833 8.69877 17.5833 9.2513H13.4167C11.1187 9.2513 9.25 11.1201 9.25 13.418V44.668C9.25 46.9659 11.1187 48.8346 13.4167 48.8346ZM13.4167 13.418H17.5833V17.5846H38.4167V13.418H42.5833V44.668H13.4167V13.418Z" fill="#4C3770"/>
<path d="M25.9167 31.3044L22.1812 27.569L19.2354 30.5148L25.9167 37.1961L36.7646 26.3482L33.8187 23.4023L25.9167 31.3044Z" fill="#4C3770"/>
</svg>
