<?xml version="1.0" encoding="utf-8"?>
<!-- Generator: Adobe Illustrator 17.0.0, SVG Export Plug-In . SVG Version: 6.00 Build 0)  -->
<!DOCTYPE svg PUBLIC "-//W3C//DTD SVG 1.1//EN" "http://www.w3.org/Graphics/SVG/1.1/DTD/svg11.dtd">
<svg version="1.1" id="Layer_1" xmlns="http://www.w3.org/2000/svg" xmlns:xlink="http://www.w3.org/1999/xlink" x="0px" y="0px"
	 width="15.406px" height="15.219px" viewBox="0 0 15.406 15.219" enable-background="new 0 0 15.406 15.219" xml:space="preserve">
<g>
	<g>
		<g>
			<path fill="#54CC54" d="M10.499,7.11c-0.057-0.127-0.183-0.207-0.322-0.207H8.764V2.307c0-0.195-0.158-0.354-0.354-0.354H6.996
				c-0.195,0-0.354,0.158-0.354,0.354v4.596H5.228c-0.139,0-0.264,0.081-0.322,0.207C4.849,7.236,4.871,7.384,4.962,7.489
				l2.475,2.828c0.067,0.077,0.164,0.121,0.266,0.121s0.199-0.045,0.266-0.121l2.475-2.828C10.535,7.385,10.557,7.236,10.499,7.11z"
				/>
		</g>
	</g>
	<g>
		<g>
			<path fill="#54CC54" d="M11.592,9.731v2.121H3.814V9.731H2.4v2.828c0,0.391,0.317,0.707,0.707,0.707h9.192
				c0.391,0,0.707-0.316,0.707-0.707V9.731H11.592z"/>
		</g>
	</g>
</g>
</svg>
