<?xml version="1.0" encoding="utf-8"?>
<!-- Generator: Adobe Illustrator 17.0.0, SVG Export Plug-In . SVG Version: 6.00 Build 0)  -->
<!DOCTYPE svg PUBLIC "-//W3C//DTD SVG 1.1//EN" "http://www.w3.org/Graphics/SVG/1.1/DTD/svg11.dtd">
<svg version="1.1" id="Layer_1" xmlns="http://www.w3.org/2000/svg" xmlns:xlink="http://www.w3.org/1999/xlink" x="0px" y="0px"
	 width="29.244px" height="15.321px" viewBox="0 0 29.244 15.321" enable-background="new 0 0 29.244 15.321" xml:space="preserve">
<path fill="#CCCCCC" d="M0,1.088c0.053-0.107,0.104-0.215,0.158-0.322c0.382-0.764,1.35-1.004,2.039-0.504
	c0.1,0.072,0.192,0.156,0.282,0.241c3.979,3.768,7.959,7.536,11.932,11.311c0.169,0.16,0.25,0.163,0.421,0.001
	c3.98-3.781,7.973-7.549,11.947-11.337c0.836-0.797,1.966-0.5,2.351,0.36c0.045,0.101,0.024,0.225,0.114,0.307
	c0,0.19,0,0.381,0,0.571c-0.198,0.526-0.624,0.864-1.014,1.233c-4.158,3.939-8.316,7.879-12.473,11.819
	c-0.777,0.737-1.492,0.737-2.27,0C9.226,10.73,4.965,6.692,0.699,2.659C0.407,2.382,0.163,2.083,0,1.716C0,1.507,0,1.297,0,1.088z"
	/>
</svg>
