<svg width="18" height="18" viewBox="0 0 18 18" fill="none" xmlns="http://www.w3.org/2000/svg">
<path d="M12.7399 3.2662L14.7333 5.25868L12.7399 3.2662ZM14.0218 1.5109L8.63166 6.90105C8.35315 7.17916 8.16321 7.5335 8.08578 7.9194L7.58789 10.4117L10.0801 9.91283C10.466 9.83565 10.8199 9.64647 11.0985 9.36788L16.4886 3.97774C16.6506 3.81576 16.7791 3.62347 16.8668 3.41184C16.9544 3.20021 16.9995 2.97338 16.9995 2.74432C16.9995 2.51525 16.9544 2.28843 16.8668 2.0768C16.7791 1.86517 16.6506 1.67287 16.4886 1.5109C16.3267 1.34892 16.1344 1.22044 15.9227 1.13278C15.7111 1.04512 15.4843 1 15.2552 1C15.0262 1 14.7993 1.04512 14.5877 1.13278C14.3761 1.22044 14.1838 1.34892 14.0218 1.5109V1.5109Z" stroke="#6F6F6F" stroke-width="2" stroke-linecap="round" stroke-linejoin="round"/>
<path d="M15.1177 12.2941V15.1177C15.1177 15.6169 14.9194 16.0957 14.5664 16.4487C14.2134 16.8017 13.7346 17 13.2354 17H2.88236C2.38313 17 1.90434 16.8017 1.55133 16.4487C1.19832 16.0957 1 15.6169 1 15.1177V4.76469C1 4.26545 1.19832 3.78667 1.55133 3.43366C1.90434 3.08064 2.38313 2.88232 2.88236 2.88232H5.70591" stroke="#6F6F6F" stroke-width="2" stroke-linecap="round" stroke-linejoin="round"/>
</svg>
