<svg width="18" height="21" viewBox="0 0 18 21" fill="none" xmlns="http://www.w3.org/2000/svg">
<path d="M17.3176 9.60413L14.754 7.32532V3.81956L11.8123 0.877869H3.84886V6.00969H0.962216C0.707112 6.00998 0.462541 6.11146 0.282155 6.29184C0.101768 6.47223 0.000297102 6.7168 0 6.9719V19.16C0.000297102 19.4151 0.101768 19.6596 0.282155 19.84C0.462541 20.0204 0.707112 20.1219 0.962216 20.1222H17.6406V10.3233C17.6406 10.1875 17.6118 10.0531 17.5561 9.92917C17.5004 9.80522 17.4192 9.69444 17.3176 9.60413ZM3.84886 18.8392H1.28295V7.29264H3.84886V18.8392ZM10.9051 2.16082H11.2809L13.471 4.35095V4.72673H10.9051V2.16082ZM5.13182 2.16082H9.62216V6.00969H13.471V8.89633H5.13182V2.16082ZM16.3577 18.8392H5.13182V10.1793H14.754V9.04183L16.3577 10.4674V18.8392Z" fill="#0078E6"/>
<path d="M7.05664 14.0281H8.3396V15.3111H7.05664V14.0281Z" fill="#0078E6"/>
<path d="M9.62305 14.0281H10.906V15.3111H9.62305V14.0281Z" fill="#0078E6"/>
<path d="M7.05664 16.5941H8.3396V17.877H7.05664V16.5941Z" fill="#0078E6"/>
<path d="M9.62305 16.5941H10.906V17.877H9.62305V16.5941Z" fill="#0078E6"/>
<path d="M12.1875 14.0281H13.4705V15.3111H12.1875V14.0281Z" fill="#0078E6"/>
<path d="M12.1875 16.5941H13.4705V17.877H12.1875V16.5941Z" fill="#0078E6"/>
<path d="M7.05664 11.4622H13.4714V12.7452H7.05664V11.4622Z" fill="#0078E6"/>
</svg>
