<svg width="25" height="25" viewBox="0 0 25 25" fill="none" xmlns="http://www.w3.org/2000/svg">
<path d="M17.3776 0.65625H7.67707C3.7347 0.65625 0.527344 3.8636 0.527344 7.80598V17.5065C0.527344 21.4489 3.7347 24.6562 7.67707 24.6562H17.3776C21.32 24.6562 24.5273 21.4489 24.5273 17.5065V7.80598C24.5273 3.8636 21.3199 0.65625 17.3776 0.65625ZM22.1129 17.5065C22.1129 20.1217 19.9928 22.2419 17.3776 22.2419H7.67707C5.06184 22.2419 2.94174 20.1217 2.94174 17.5065V7.80598C2.94174 5.19071 5.06184 3.07065 7.67707 3.07065H17.3776C19.9928 3.07065 22.1129 5.19071 22.1129 7.80598V17.5065Z" fill="#1E1E1E"/>
<path d="M12.5198 6.44922C9.09707 6.44922 6.3125 9.23379 6.3125 12.6564C6.3125 16.0791 9.09707 18.8637 12.5198 18.8637C15.9424 18.8637 18.727 16.0791 18.727 12.6564C18.727 9.23374 15.9424 6.44922 12.5198 6.44922ZM12.5198 16.4493C10.425 16.4493 8.7269 14.7512 8.7269 12.6565C8.7269 10.5617 10.425 8.86362 12.5198 8.86362C14.6145 8.86362 16.3126 10.5617 16.3126 12.6565C16.3126 14.7512 14.6145 16.4493 12.5198 16.4493Z" fill="#1E1E1E"/>
<path d="M18.7452 7.98258C19.5667 7.98258 20.2326 7.31666 20.2326 6.4952C20.2326 5.67374 19.5667 5.00781 18.7452 5.00781C17.9237 5.00781 17.2578 5.67374 17.2578 6.4952C17.2578 7.31666 17.9237 7.98258 18.7452 7.98258Z" fill="#1E1E1E"/>
</svg>
