<svg width="29" height="29" viewBox="0 0 29 29" fill="none" xmlns="http://www.w3.org/2000/svg">
<circle cx="14.5" cy="14.5" r="14.5" fill="#CBF3EF"/>
<path d="M22.9362 16.4786V20.4329C22.9362 21.7968 21.8274 22.8958 20.4733 22.8958H8.18845C6.82455 22.8958 5.72559 21.787 5.72559 20.4329V16.4786C5.72559 16.1155 6.01995 15.8212 6.383 15.8212H13.3202C13.4282 16.2921 13.8599 16.6454 14.3603 16.6454H14.3996C14.9098 16.6454 15.3317 16.2921 15.4397 15.8212H22.269C22.6418 15.8113 22.9362 16.1155 22.9362 16.4786Z" fill="#24BAA9"/>
<path d="M21.563 10.0614H18.1974V9.13906C18.1974 7.9616 17.2358 7 16.0584 7H12.6535C11.4761 7 10.5145 7.9616 10.5145 9.13906V10.0614H7.09981C5.94197 10.0614 5 11.0034 5 12.171V14.261C5 14.575 5.25512 14.8203 5.5593 14.8203H13.2913V14.4376C13.2913 14.1629 13.517 13.947 13.7819 13.947H14.9692C15.2439 13.947 15.4598 14.1727 15.4598 14.4376V14.8203H23.0937C23.4077 14.8203 23.653 14.5652 23.653 14.261V12.171C23.6628 11.0034 22.7208 10.0614 21.563 10.0614ZM16.5293 10.0614H12.1825V9.13906C12.1825 8.88394 12.3886 8.66807 12.6535 8.66807H16.0584C16.3135 8.66807 16.5293 8.87413 16.5293 9.13906V10.0614Z" fill="#24BAA9"/>
</svg>
