<?xml version="1.0" encoding="utf-8"?>
<!-- Generator: Adobe Illustrator 17.0.0, SVG Export Plug-In . SVG Version: 6.00 Build 0)  -->
<!DOCTYPE svg PUBLIC "-//W3C//DTD SVG 1.1//EN" "http://www.w3.org/Graphics/SVG/1.1/DTD/svg11.dtd">
<svg version="1.1" id="Layer_1" xmlns="http://www.w3.org/2000/svg" xmlns:xlink="http://www.w3.org/1999/xlink" x="0px" y="0px"
	 width="21px" height="18px" viewBox="0 0 21 18" enable-background="new 0 0 21 18" xml:space="preserve">
<g>
	<g>
		<path fill="#FFFFFF" d="M5.213,8.997C5.212,9.261,5.314,9.509,5.5,9.695l8.018,8.017C13.703,17.898,13.95,18,14.214,18
			s0.511-0.102,0.696-0.288l0.59-0.59c0.185-0.186,0.288-0.433,0.288-0.697s-0.102-0.511-0.288-0.696L8.766,8.996l6.726-6.726
			c0.384-0.384,0.384-1.008,0-1.393l-0.59-0.59C14.717,0.102,14.47,0,14.206,0s-0.511,0.102-0.696,0.288L5.5,8.298
			C5.314,8.483,5.212,8.732,5.213,8.997z"/>
	</g>
</g>
</svg>
