<svg width="104" height="51" viewBox="0 0 104 51" fill="none" xmlns="http://www.w3.org/2000/svg">
<path d="M19.033 11.0156H32.7874C39.7236 11.0156 40.7326 15.1689 40.2188 17.9628C39.5028 21.8517 37.0153 22.9468 35.7287 23.5129C38.9674 24.7589 39.3877 27.4021 38.8941 30.0826C38.4979 32.2345 37.177 34.2734 35.4222 35.6704C33.5282 37.1808 31.8174 38.1246 26.0243 38.1246H14.043L19.033 11.0156ZM20.5797 33.4431H27.8316C30.7085 33.4431 32.5861 32.2348 33.0934 29.4788C33.5315 27.1 31.5697 26.194 29.4417 26.194H21.9142L20.5797 33.4431ZM22.7549 21.6253H29.6914C32.0167 21.6253 34.0286 20.7569 34.4248 18.6048C34.835 16.377 33.3045 15.6976 30.6249 15.6976H23.8463L22.7549 21.6253Z" fill="#002356"/>
<path d="M64.8997 15.805H49.6526L48.5871 21.5061H62.5935L61.6973 26.3012H47.6909L46.3784 33.3237H62.3057L61.4096 38.119H39.5996L44.6659 11.0098H65.7957L64.8997 15.805Z" fill="#002356"/>
<path d="M83.7328 20.4791C83.5511 18.782 83.1931 15.5854 78.0984 15.5854C75.1403 15.5854 70.4373 17.4796 68.9667 25.4911C68.0317 30.5822 69.2871 35.1602 74.505 35.1602C77.9151 35.1602 80.6384 33.3054 82.0155 29.8326H88.1788C85.816 35.9892 80.8354 40.291 73.44 40.291C65.5923 40.291 60.8982 35.1999 62.6949 25.4125C64.5133 15.5068 71.3979 10.4551 78.9991 10.4551C87.8327 10.4551 90.335 16.296 89.8956 20.4793L83.7328 20.4791Z" fill="#002356"/>
<path d="M65.0615 21.3086H34.4512V26.5086H65.0615V21.3086Z" fill="#002356"/>
<path d="M95.8835 39.1942C95.036 43.8952 90.3497 47.7415 85.4695 47.7415H10.465C5.58481 47.7415 2.28527 43.8952 3.13278 39.1942L8.1167 11.5471C8.96421 6.84604 13.6505 3 18.5307 3H93.5349C98.4152 3 101.715 6.84628 100.867 11.5471L95.8835 39.1942Z" stroke="#002356" stroke-width="5.75682" stroke-miterlimit="10"/>
</svg>
