<svg width="18" height="15" viewBox="0 0 18 15" fill="none" xmlns="http://www.w3.org/2000/svg">
<path d="M17.3571 0H0.642857C0.287277 0 0 0.304688 0 0.681818V14.3182C0 14.6953 0.287277 15 0.642857 15H17.3571C17.7127 15 18 14.6953 18 14.3182V0.681818C18 0.304688 17.7127 0 17.3571 0ZM16.5536 2.3608V13.4659H1.44643V2.3608L0.891964 1.9027L1.68147 0.826705L2.54129 1.53622H15.4607L16.3205 0.826705L17.11 1.9027L16.5536 2.3608ZM15.4607 1.53409L9 6.8608L2.53929 1.53409L1.67946 0.824574L0.889955 1.90057L1.44442 2.35866L8.30692 8.01776C8.50428 8.18037 8.74707 8.26865 8.99699 8.26865C9.2469 8.26865 9.4897 8.18037 9.68705 8.01776L16.5536 2.3608L17.108 1.9027L16.3185 0.826705L15.4607 1.53409Z" fill="#0078E6"/>
</svg>
