<svg width="25" height="28" viewBox="0 0 25 28" fill="none" xmlns="http://www.w3.org/2000/svg">
<path d="M18.4902 10.2063C19.1677 10.9352 19.6122 11.8497 19.7669 12.8328C19.9216 13.8158 19.7795 14.8227 19.3587 15.7245M20.8445 6.97248C22.3524 8.34912 23.3473 10.1975 23.666 12.2143C23.9847 14.231 23.6082 16.2962 22.5983 18.0707M17.093 23.9335L15.3273 26.3588C15.1643 26.5846 14.9559 26.7739 14.7155 26.9145C14.4752 27.0552 14.208 27.144 13.9313 27.1755C13.6546 27.2069 13.3743 27.1802 13.1085 27.097C12.8427 27.0139 12.5972 26.8761 12.3878 26.6926C10.0968 24.6111 8.3261 22.0213 7.21782 19.1313C6.16815 16.4679 5.71776 13.6062 5.89862 10.7492C6.06781 7.6454 6.96574 4.62513 8.51966 1.93305C8.66222 1.69478 8.85282 1.4888 9.07935 1.32823C9.30587 1.16767 9.56335 1.05603 9.83538 1.00042C10.1074 0.944811 10.388 0.946456 10.6594 1.00525C10.9308 1.06404 11.1869 1.17869 11.4116 1.34191L13.8369 3.10763C14.232 3.38941 14.5112 3.80526 14.6225 4.27768C14.7337 4.75009 14.6693 5.24683 14.4414 5.6753C13.9787 6.52599 13.6137 7.42629 13.3534 8.35903C13.2515 8.72758 13.0461 9.0592 12.7615 9.31458C12.477 9.56997 12.1251 9.73842 11.7477 9.79998L9.97352 10.0792C9.65086 12.9411 10.1066 15.8369 11.2927 18.4613L13.0669 18.1821C13.445 18.1248 13.8316 18.177 14.1808 18.3326C14.5301 18.4883 14.8274 18.7408 15.0376 19.0602C15.5718 19.8679 16.1957 20.6126 16.8973 21.28C17.2497 21.6213 17.4643 22.0802 17.5004 22.5695C17.5365 23.0587 17.3915 23.5442 17.093 23.9335Z" stroke="white" stroke-linecap="round" stroke-linejoin="round"/>
</svg>
