<?xml version="1.0" encoding="utf-8"?>
<!-- Generator: Adobe Illustrator 17.0.0, SVG Export Plug-In . SVG Version: 6.00 Build 0)  -->
<!DOCTYPE svg PUBLIC "-//W3C//DTD SVG 1.1//EN" "http://www.w3.org/Graphics/SVG/1.1/DTD/svg11.dtd">
<svg version="1.1" id="Layer_1" xmlns="http://www.w3.org/2000/svg" xmlns:xlink="http://www.w3.org/1999/xlink" x="0px" y="0px"
	 width="8.168px" height="8.168px" viewBox="0 0 8.168 8.168" enable-background="new 0 0 8.168 8.168" xml:space="preserve">
<path fill="#4D3871" d="M7.13,4.464H4.534V7.13c0,0.296-0.154,0.538-0.45,0.538c-0.148,0-0.218-0.033-0.316-0.131
	C3.671,7.44,3.628,7.278,3.628,7.13V4.537H1.038c-0.148,0-0.329-0.043-0.426-0.141C0.515,4.299,0.5,4.232,0.5,4.084
	c0-0.296,0.242-0.453,0.538-0.453h2.589V1.038c0-0.296,0.16-0.538,0.456-0.538c0.296,0,0.45,0.242,0.45,0.538v2.593H7.13
	c0.296,0,0.538,0.157,0.538,0.453S7.426,4.464,7.13,4.464z"/>
</svg>
