<?xml version="1.0" encoding="utf-8"?>
<!-- Generator: Adobe Illustrator 17.0.0, SVG Export Plug-In . SVG Version: 6.00 Build 0)  -->
<!DOCTYPE svg PUBLIC "-//W3C//DTD SVG 1.1//EN" "http://www.w3.org/Graphics/SVG/1.1/DTD/svg11.dtd">
<svg version="1.1" id="Layer_1" xmlns="http://www.w3.org/2000/svg" xmlns:xlink="http://www.w3.org/1999/xlink" x="0px" y="0px"
	 width="254.332px" height="51.489px" viewBox="-1.5 22.844 254.332 51.489" enable-background="new -1.5 22.844 254.332 51.489"
	 xml:space="preserve">
<path fill="none" stroke="#FE6B00" stroke-width="3" stroke-linecap="square" stroke-linejoin="round" d="M0,41.665h21.424
	c2.824,0,5.582-0.419,7.915-1.204l8.579-2.884c2.949-0.991,6.885-0.87,9.561,0.294l4.737,2.06c2.567,1.117,5.872,1.733,9.295,1.733
	h18.104l5.464-16.931 M85.078,24.734l8.586,48.1l7.932-29.915 M85.078,24.734l-4.529,13.989 M85.078,24.734l2.816,15.619
	 M101.578,42.833l40.134-1.136c0.747-0.021,1.483-0.095,2.187-0.219l37.506-6.629c1.804-0.319,3.783-0.299,5.56,0.055l32.519,6.481
	c0.929,0.185,1.923,0.28,2.925,0.28h28.923 M251.833,41.665"/>
</svg>
