<svg width="56" height="56" viewBox="0 0 56 56" fill="none" xmlns="http://www.w3.org/2000/svg">
<rect width="56" height="56" rx="5" fill="#EDE3FF"/>
<path d="M19.375 17.9375H25.125M19.375 28H36.625M19.375 33.75H36.625M19.375 39.5H25.125M16.5 46.6875H39.5C40.2625 46.6875 40.9938 46.3846 41.5329 45.8454C42.0721 45.3063 42.375 44.575 42.375 43.8125V12.1875C42.375 11.425 42.0721 10.6937 41.5329 10.1546C40.9938 9.6154 40.2625 9.3125 39.5 9.3125H16.5C15.7375 9.3125 15.0062 9.6154 14.4671 10.1546C13.9279 10.6937 13.625 11.425 13.625 12.1875V43.8125C13.625 44.575 13.9279 45.3063 14.4671 45.8454C15.0062 46.3846 15.7375 46.6875 16.5 46.6875Z" stroke="#4C3770" stroke-width="2.875" stroke-linecap="round" stroke-linejoin="round"/>
<path d="M36.625 18.6562C37.022 18.6562 37.3438 18.3345 37.3438 17.9375C37.3438 17.5405 37.022 17.2188 36.625 17.2188C36.228 17.2188 35.9062 17.5405 35.9062 17.9375C35.9062 18.3345 36.228 18.6562 36.625 18.6562Z" fill="black" stroke="black" stroke-width="1.4375"/>
</svg>
