<?xml version="1.0" encoding="utf-8"?>
<!-- Generator: Adobe Illustrator 17.0.0, SVG Export Plug-In . SVG Version: 6.00 Build 0)  -->
<!DOCTYPE svg PUBLIC "-//W3C//DTD SVG 1.1//EN" "http://www.w3.org/Graphics/SVG/1.1/DTD/svg11.dtd">
<svg version="1.1" id="Layer_1" xmlns="http://www.w3.org/2000/svg" xmlns:xlink="http://www.w3.org/1999/xlink" x="0px" y="0px"
	 width="103px" height="17px" viewBox="0 0 103 17" enable-background="new 0 0 103 17" xml:space="preserve">
<g>
	<g>
		<polygon fill="#F5711F" points="8.557,0.979 11.009,5.931 16.493,6.724 12.525,10.577 13.462,16.021 8.557,13.451 3.65,16.021 
			4.589,10.577 0.619,6.724 6.105,5.931 		"/>
	</g>
</g>
<g>
	<g>
		<polygon fill="#F5711F" points="29.682,0.979 32.134,5.931 37.618,6.724 33.65,10.577 34.587,16.021 29.682,13.451 24.775,16.021 
			25.714,10.577 21.744,6.724 27.23,5.931 		"/>
	</g>
</g>
<g>
	<g>
		<polygon fill="#F5711F" points="50.307,0.979 52.759,5.931 58.243,6.724 54.275,10.577 55.212,16.021 50.307,13.451 45.4,16.021 
			46.339,10.577 42.369,6.724 47.855,5.931 		"/>
	</g>
</g>
<g>
	<g>
		<polygon fill="#F5711F" points="71.807,0.979 74.259,5.931 79.743,6.724 75.775,10.577 76.712,16.021 71.807,13.451 66.9,16.021 
			67.839,10.577 63.869,6.724 69.355,5.931 		"/>
	</g>
</g>
<g>
	<g>
		<polygon fill="#F5711F" points="94.432,0.979 96.884,5.931 102.368,6.724 98.4,10.577 99.337,16.021 94.432,13.451 89.525,16.021 
			90.464,10.577 86.494,6.724 91.98,5.931 		"/>
	</g>
</g>
</svg>
