<?xml version="1.0" encoding="utf-8"?>
<!-- Generator: Adobe Illustrator 17.0.0, SVG Export Plug-In . SVG Version: 6.00 Build 0)  -->
<!DOCTYPE svg PUBLIC "-//W3C//DTD SVG 1.1//EN" "http://www.w3.org/Graphics/SVG/1.1/DTD/svg11.dtd">
<svg version="1.1" id="Layer_1" xmlns="http://www.w3.org/2000/svg" xmlns:xlink="http://www.w3.org/1999/xlink" x="0px" y="0px"
	 width="21px" height="18px" viewBox="0 0 21 18" enable-background="new 0 0 21 18" xml:space="preserve">
<g>
	<g>
		<path fill="#FFFFFF" d="M15.788,9.003c0.001-0.264-0.101-0.512-0.287-0.698L7.483,0.288C7.298,0.102,7.051,0,6.787,0
			S6.276,0.102,6.091,0.288l-0.59,0.59C5.316,1.064,5.213,1.311,5.213,1.575s0.102,0.511,0.288,0.696l6.734,6.733L5.509,15.73
			c-0.384,0.384-0.384,1.008,0,1.393l0.59,0.59C6.284,17.898,6.531,18,6.795,18s0.511-0.102,0.696-0.288l8.01-8.01
			C15.687,9.517,15.789,9.268,15.788,9.003z"/>
	</g>
</g>
</svg>
