<svg width="56" height="56" viewBox="0 0 56 56" fill="none" xmlns="http://www.w3.org/2000/svg">
<g clip-path="url(#clip0_15_19)">
<path d="M51 0H5C2.23858 0 0 2.23858 0 5V51C0 53.7614 2.23858 56 5 56H51C53.7614 56 56 53.7614 56 51V5C56 2.23858 53.7614 0 51 0Z" fill="#EDE3FF"/>
<path d="M35 21L21 35" stroke="#4C3770" stroke-width="2.5" stroke-linecap="round"/>
<circle cx="23.5" cy="22.5" r="3.5" stroke="#4C3770" stroke-width="2"/>
<circle cx="32.5" cy="33.5" r="3.5" stroke="#4C3770" stroke-width="2"/>
<path d="M25.9141 11.0179C27.0771 9.89279 28.9229 9.89279 30.0859 11.0179L31.6431 12.5243C32.3081 13.1677 33.2329 13.4682 34.1491 13.3386L36.2943 13.0351C37.8965 12.8085 39.3898 13.8934 39.6694 15.4872L40.0437 17.6212C40.2036 18.5327 40.7751 19.3193 41.5925 19.753L43.5064 20.7684C44.9358 21.5269 45.5062 23.2823 44.7955 24.736L43.844 26.6825C43.4377 27.5138 43.4377 28.4862 43.844 29.3175L44.7955 31.264C45.5062 32.7177 44.9358 34.4731 43.5064 35.2316L41.5925 36.247C40.7751 36.6807 40.2036 37.4673 40.0437 38.3788L39.6694 40.5128C39.3898 42.1066 37.8965 43.1915 36.2943 42.9649L34.1491 42.6614C33.2329 42.5318 32.3081 42.8323 31.6431 43.4757L30.0859 44.9821C28.9229 46.1072 27.0771 46.1072 25.9141 44.9821L24.3569 43.4757C23.6919 42.8323 22.7671 42.5318 21.8509 42.6614L19.7057 42.9649C18.1035 43.1915 16.6102 42.1066 16.3306 40.5128L15.9563 38.3788C15.7964 37.4673 15.2249 36.6807 14.4075 36.247L12.4936 35.2316C11.0642 34.4731 10.4938 32.7177 11.2045 31.264L12.156 29.3175C12.5623 28.4862 12.5623 27.5138 12.156 26.6825L11.2045 24.736C10.4938 23.2823 11.0642 21.5269 12.4936 20.7684L14.4075 19.753C15.2249 19.3193 15.7964 18.5327 15.9563 17.6212L16.3306 15.4872C16.6102 13.8934 18.1035 12.8085 19.7057 13.0351L21.8509 13.3386C22.7671 13.4682 23.6919 13.1677 24.3569 12.5243L25.9141 11.0179Z" stroke="#4C3770" stroke-width="2.5"/>
</g>
<defs>
<clipPath id="clip0_15_19">
<rect width="56" height="56" fill="white"/>
</clipPath>
</defs>
</svg>
