<svg width="56" height="56" viewBox="0 0 56 56" fill="none" xmlns="http://www.w3.org/2000/svg">
<rect width="56" height="56" rx="5" fill="#EDE3FF"/>
<mask id="path-2-outside-1_6_217" maskUnits="userSpaceOnUse" x="8.39307" y="7.86719" width="40" height="41" fill="black">
<rect fill="white" x="8.39307" y="7.86719" width="40" height="41"/>
<path d="M43.9688 29.5677V27.4161L46.6688 25.0536C47.1665 24.615 47.4931 24.0145 47.5909 23.3583C47.6887 22.7021 47.5513 22.0324 47.2031 21.4677L43.8844 15.8427C43.6378 15.4156 43.2832 15.0608 42.8562 14.814C42.4292 14.5672 41.9448 14.437 41.4516 14.4365C41.1459 14.4341 40.8419 14.4816 40.5516 14.5771L37.1344 15.7302C36.5452 15.3369 35.9297 14.9845 35.2922 14.6755L34.575 11.1318C34.4464 10.4843 34.0942 9.90276 33.58 9.48885C33.0659 9.07494 32.4225 8.85506 31.7625 8.8677H25.1813C24.5213 8.85506 23.8779 9.07494 23.3638 9.48885C22.8496 9.90276 22.4974 10.4843 22.3688 11.1318L21.6516 14.6755C21.0103 14.9858 20.3902 15.3381 19.7953 15.7302L16.4485 14.5208C16.155 14.4444 15.851 14.4159 15.5485 14.4365C15.0552 14.437 14.5708 14.5672 14.1438 14.814C13.7168 15.0608 13.3622 15.4156 13.1156 15.8427L9.79689 21.4677C9.46866 22.0316 9.34669 22.6921 9.45187 23.336C9.55705 23.9799 9.88285 24.5673 10.3735 24.9974L13.0313 27.4302V29.5818L10.3735 31.9443C9.86899 32.3774 9.53428 32.9752 9.42874 33.6317C9.32319 34.2882 9.45362 34.9608 9.79689 35.5302L13.1156 41.1552C13.3622 41.5823 13.7168 41.9371 14.1438 42.1839C14.5708 42.4308 15.0552 42.561 15.5485 42.5615C15.8541 42.5638 16.1581 42.5163 16.4485 42.4208L19.8656 41.2677C20.4548 41.661 21.0703 42.0134 21.7078 42.3224L22.425 45.8661C22.5536 46.5136 22.9058 47.0951 23.42 47.5091C23.9342 47.923 24.5776 48.1429 25.2375 48.1302H31.875C32.535 48.1429 33.1784 47.923 33.6925 47.5091C34.2067 47.0951 34.5589 46.5136 34.6875 45.8661L35.4047 42.3224C36.046 42.0121 36.6661 41.6598 37.261 41.2677L40.6641 42.4208C40.9544 42.5163 41.2584 42.5638 41.5641 42.5615C42.0573 42.561 42.5417 42.4308 42.9687 42.1839C43.3957 41.9371 43.7503 41.5823 43.9969 41.1552L47.2031 35.5302C47.5314 34.9663 47.6534 34.3058 47.5482 33.6619C47.443 33.018 47.1172 32.4307 46.6266 32.0005L43.9688 29.5677ZM41.4516 39.749L36.6281 38.1177C35.4983 39.0731 34.208 39.8206 32.8172 40.3255L31.8188 45.374H25.1813L24.1828 40.3818C22.8029 39.8627 21.5196 39.1165 20.386 38.174L15.5485 39.749L12.2297 34.124L16.0547 30.749C15.7947 29.2933 15.7947 27.8031 16.0547 26.3474L12.2297 22.874L15.5485 17.249L20.3719 18.8802C21.5017 17.9248 22.792 17.1773 24.1828 16.6724L25.1813 11.624H31.8188L32.8172 16.6161C34.1971 17.1352 35.4804 17.8814 36.6141 18.824L41.4516 17.249L44.7703 22.874L40.9453 26.249C41.2054 27.7046 41.2054 29.1949 40.9453 30.6505L44.7703 34.124L41.4516 39.749Z"/>
</mask>
<path d="M43.9688 29.5677V27.4161L46.6688 25.0536C47.1665 24.615 47.4931 24.0145 47.5909 23.3583C47.6887 22.7021 47.5513 22.0324 47.2031 21.4677L43.8844 15.8427C43.6378 15.4156 43.2832 15.0608 42.8562 14.814C42.4292 14.5672 41.9448 14.437 41.4516 14.4365C41.1459 14.4341 40.8419 14.4816 40.5516 14.5771L37.1344 15.7302C36.5452 15.3369 35.9297 14.9845 35.2922 14.6755L34.575 11.1318C34.4464 10.4843 34.0942 9.90276 33.58 9.48885C33.0659 9.07494 32.4225 8.85506 31.7625 8.8677H25.1813C24.5213 8.85506 23.8779 9.07494 23.3638 9.48885C22.8496 9.90276 22.4974 10.4843 22.3688 11.1318L21.6516 14.6755C21.0103 14.9858 20.3902 15.3381 19.7953 15.7302L16.4485 14.5208C16.155 14.4444 15.851 14.4159 15.5485 14.4365C15.0552 14.437 14.5708 14.5672 14.1438 14.814C13.7168 15.0608 13.3622 15.4156 13.1156 15.8427L9.79689 21.4677C9.46866 22.0316 9.34669 22.6921 9.45187 23.336C9.55705 23.9799 9.88285 24.5673 10.3735 24.9974L13.0313 27.4302V29.5818L10.3735 31.9443C9.86899 32.3774 9.53428 32.9752 9.42874 33.6317C9.32319 34.2882 9.45362 34.9608 9.79689 35.5302L13.1156 41.1552C13.3622 41.5823 13.7168 41.9371 14.1438 42.1839C14.5708 42.4308 15.0552 42.561 15.5485 42.5615C15.8541 42.5638 16.1581 42.5163 16.4485 42.4208L19.8656 41.2677C20.4548 41.661 21.0703 42.0134 21.7078 42.3224L22.425 45.8661C22.5536 46.5136 22.9058 47.0951 23.42 47.5091C23.9342 47.923 24.5776 48.1429 25.2375 48.1302H31.875C32.535 48.1429 33.1784 47.923 33.6925 47.5091C34.2067 47.0951 34.5589 46.5136 34.6875 45.8661L35.4047 42.3224C36.046 42.0121 36.6661 41.6598 37.261 41.2677L40.6641 42.4208C40.9544 42.5163 41.2584 42.5638 41.5641 42.5615C42.0573 42.561 42.5417 42.4308 42.9687 42.1839C43.3957 41.9371 43.7503 41.5823 43.9969 41.1552L47.2031 35.5302C47.5314 34.9663 47.6534 34.3058 47.5482 33.6619C47.443 33.018 47.1172 32.4307 46.6266 32.0005L43.9688 29.5677ZM41.4516 39.749L36.6281 38.1177C35.4983 39.0731 34.208 39.8206 32.8172 40.3255L31.8188 45.374H25.1813L24.1828 40.3818C22.8029 39.8627 21.5196 39.1165 20.386 38.174L15.5485 39.749L12.2297 34.124L16.0547 30.749C15.7947 29.2933 15.7947 27.8031 16.0547 26.3474L12.2297 22.874L15.5485 17.249L20.3719 18.8802C21.5017 17.9248 22.792 17.1773 24.1828 16.6724L25.1813 11.624H31.8188L32.8172 16.6161C34.1971 17.1352 35.4804 17.8814 36.6141 18.824L41.4516 17.249L44.7703 22.874L40.9453 26.249C41.2054 27.7046 41.2054 29.1949 40.9453 30.6505L44.7703 34.124L41.4516 39.749Z" fill="#4C3770"/>
<path d="M43.9688 29.5677H43.4688V29.7879L43.6312 29.9365L43.9688 29.5677ZM43.9688 27.4161L43.6395 27.0399L43.4688 27.1893V27.4161H43.9688ZM46.6688 25.0536L46.998 25.4299L46.9994 25.4287L46.6688 25.0536ZM47.2031 21.4677L46.7724 21.7218L46.7775 21.7301L47.2031 21.4677ZM43.8844 15.8427L43.4514 16.0927L43.4538 16.0968L43.8844 15.8427ZM41.4516 14.4365L41.4477 14.9365L41.4511 14.9365L41.4516 14.4365ZM40.5516 14.5771L40.3954 14.1021L40.3917 14.1033L40.5516 14.5771ZM37.1344 15.7302L36.8568 16.1461L37.0613 16.2826L37.2943 16.204L37.1344 15.7302ZM35.2922 14.6755L34.8021 14.7747L34.8513 15.0174L35.0741 15.1255L35.2922 14.6755ZM34.575 11.1318L34.0846 11.2292L34.085 11.2309L34.575 11.1318ZM31.7625 8.8677L31.7625 9.3678L31.7721 9.36761L31.7625 8.8677ZM25.1813 8.8677L25.1717 9.3677H25.1813V8.8677ZM22.3688 11.1318L22.8588 11.2309L22.8592 11.2292L22.3688 11.1318ZM21.6516 14.6755L21.8694 15.1256L22.0925 15.0176L22.1416 14.7747L21.6516 14.6755ZM19.7953 15.7302L19.6254 16.2004L19.8612 16.2856L20.0705 16.1477L19.7953 15.7302ZM16.4485 14.5208L16.6184 14.0506L16.5968 14.0428L16.5745 14.037L16.4485 14.5208ZM15.5485 14.4365L15.549 14.9365L15.5657 14.9364L15.5824 14.9353L15.5485 14.4365ZM13.1156 15.8427L13.5463 16.0968L13.5487 16.0927L13.1156 15.8427ZM9.79689 21.4677L9.36625 21.2136L9.36477 21.2162L9.79689 21.4677ZM10.3735 24.9974L10.7111 24.6285L10.7031 24.6214L10.3735 24.9974ZM13.0313 27.4302H13.5313V27.21L13.3689 27.0614L13.0313 27.4302ZM13.0313 29.5818L13.3635 29.9555L13.5313 29.8063V29.5818H13.0313ZM10.3735 31.9443L10.6992 32.3237L10.7056 32.318L10.3735 31.9443ZM9.79689 35.5302L10.2275 35.2761L10.2251 35.2721L9.79689 35.5302ZM13.1156 41.1552L13.5487 40.9052L13.5463 40.9011L13.1156 41.1552ZM15.5485 42.5615L15.5523 42.0615L15.549 42.0615L15.5485 42.5615ZM16.4485 42.4208L16.6046 42.8958L16.6083 42.8946L16.4485 42.4208ZM19.8656 41.2677L20.1433 40.8519L19.9388 40.7153L19.7058 40.794L19.8656 41.2677ZM21.7078 42.3224L22.1979 42.2232L22.1488 41.9805L21.9259 41.8725L21.7078 42.3224ZM22.425 45.8661L22.9154 45.7687L22.9151 45.767L22.425 45.8661ZM25.2375 48.1302V47.6301L25.2279 47.6303L25.2375 48.1302ZM31.875 48.1302L31.8846 47.6302H31.875V48.1302ZM34.6875 45.8661L34.1974 45.767L34.1971 45.7687L34.6875 45.8661ZM35.4047 42.3224L35.1869 41.8723L34.9638 41.9803L34.9146 42.2232L35.4047 42.3224ZM37.261 41.2677L37.4214 40.7942L37.1899 40.7157L36.9858 40.8502L37.261 41.2677ZM40.6641 42.4208L40.5036 42.8944L40.5079 42.8958L40.6641 42.4208ZM41.5641 42.5615L41.5636 42.0614L41.5603 42.0615L41.5641 42.5615ZM43.9969 41.1552L44.4299 41.4052L44.4313 41.4028L43.9969 41.1552ZM47.2031 35.5302L46.771 35.2787L46.7688 35.2826L47.2031 35.5302ZM46.6266 32.0005L46.2889 32.3694L46.297 32.3765L46.6266 32.0005ZM41.4516 39.749L41.2914 40.2226L41.6759 40.3527L41.8822 40.003L41.4516 39.749ZM36.6281 38.1177L36.7883 37.6441L36.5209 37.5536L36.3053 37.7359L36.6281 38.1177ZM32.8172 40.3255L32.6466 39.8555L32.3814 39.9518L32.3267 40.2285L32.8172 40.3255ZM31.8188 45.374V45.874H32.2296L32.3093 45.471L31.8188 45.374ZM25.1813 45.374L24.691 45.472L24.7714 45.874H25.1813V45.374ZM24.1828 40.3818L24.6731 40.2837L24.6187 40.0115L24.3589 39.9138L24.1828 40.3818ZM20.386 38.174L20.7056 37.7895L20.4935 37.6131L20.2312 37.6985L20.386 38.174ZM15.5485 39.749L15.1178 40.003L15.3217 40.3486L15.7033 40.2244L15.5485 39.749ZM12.2297 34.124L11.8989 33.749L11.5892 34.0223L11.7991 34.378L12.2297 34.124ZM16.0547 30.749L16.3855 31.1239L16.5964 30.9378L16.5469 30.661L16.0547 30.749ZM16.0547 26.3474L16.5469 26.4353L16.5955 26.1631L16.3908 25.9772L16.0547 26.3474ZM12.2297 22.874L11.7991 22.6199L11.5922 22.9705L11.8936 23.2441L12.2297 22.874ZM15.5485 17.249L15.7086 16.7753L15.3241 16.6453L15.1178 16.9949L15.5485 17.249ZM20.3719 18.8802L20.2117 19.3539L20.4792 19.4443L20.6948 19.262L20.3719 18.8802ZM24.1828 16.6724L24.3534 17.1424L24.6186 17.0461L24.6733 16.7694L24.1828 16.6724ZM25.1813 11.624V11.124H24.7705L24.6908 11.5269L25.1813 11.624ZM31.8188 11.624L32.3091 11.5259L32.2287 11.124H31.8188V11.624ZM32.8172 16.6161L32.3269 16.7142L32.3814 16.9864L32.6412 17.0841L32.8172 16.6161ZM36.6141 18.824L36.2944 19.2084L36.5066 19.3848L36.7689 19.2994L36.6141 18.824ZM41.4516 17.249L41.8822 16.9949L41.6783 16.6493L41.2968 16.7735L41.4516 17.249ZM44.7703 22.874L45.1011 23.2489L45.4108 22.9756L45.201 22.6199L44.7703 22.874ZM40.9453 26.249L40.6145 25.874L40.4037 26.0601L40.4531 26.3369L40.9453 26.249ZM40.9453 30.6505L40.4531 30.5626L40.4045 30.8348L40.6092 31.0207L40.9453 30.6505ZM44.7703 34.124L45.201 34.378L45.4078 34.0274L45.1065 33.7538L44.7703 34.124ZM44.4688 29.5677V27.4161H43.4688V29.5677H44.4688ZM44.298 27.7924L46.998 25.4299L46.3395 24.6774L43.6395 27.0399L44.298 27.7924ZM46.9994 25.4287C47.5856 24.9121 47.9702 24.2048 48.0854 23.432L47.0963 23.2846C47.0159 23.8241 46.7474 24.3179 46.3382 24.6785L46.9994 25.4287ZM48.0854 23.432C48.2006 22.6591 48.0388 21.8704 47.6288 21.2053L46.7775 21.7301C47.0638 22.1944 47.1767 22.745 47.0963 23.2846L48.0854 23.432ZM47.6338 21.2136L44.315 15.5886L43.4538 16.0968L46.7725 21.7218L47.6338 21.2136ZM44.3174 15.5927C44.027 15.0896 43.6093 14.6718 43.1064 14.3811L42.606 15.2469C42.9571 15.4498 43.2486 15.7415 43.4514 16.0927L44.3174 15.5927ZM43.1064 14.3811C42.6035 14.0904 42.033 13.9371 41.4521 13.9365L41.4511 14.9365C41.8566 14.9369 42.2549 15.0439 42.606 15.2469L43.1064 14.3811ZM41.4554 13.9365C41.0954 13.9337 40.7374 13.9897 40.3954 14.1021L40.7078 15.0521C40.9465 14.9736 41.1964 14.9345 41.4477 14.9364L41.4554 13.9365ZM40.3917 14.1033L36.9745 15.2565L37.2943 16.204L40.7114 15.0508L40.3917 14.1033ZM37.412 15.3144C36.8038 14.9083 36.1684 14.5445 35.5103 14.2256L35.0741 15.1255C35.691 15.4244 36.2866 15.7654 36.8568 16.1461L37.412 15.3144ZM35.7823 14.5763L35.0651 11.0326L34.085 11.2309L34.8021 14.7747L35.7823 14.5763ZM35.0654 11.0344C34.914 10.2718 34.4992 9.58686 33.8936 9.09937L33.2665 9.87833C33.6893 10.2187 33.9789 10.6968 34.0846 11.2292L35.0654 11.0344ZM33.8936 9.09937C33.288 8.61187 32.5302 8.3529 31.7529 8.3678L31.7721 9.36761C32.3147 9.35721 32.8437 9.538 33.2665 9.87833L33.8936 9.09937ZM31.7625 8.3677H25.1813V9.3677H31.7625V8.3677ZM25.1909 8.3678C24.4136 8.3529 23.6558 8.61187 23.0502 9.09937L23.6773 9.87833C24.1001 9.538 24.6291 9.35721 25.1717 9.36761L25.1909 8.3678ZM23.0502 9.09937C22.4446 9.58686 22.0298 10.2718 21.8784 11.0344L22.8592 11.2292C22.9649 10.6968 23.2545 10.2187 23.6773 9.87833L23.0502 9.09937ZM21.8787 11.0326L21.1615 14.5763L22.1416 14.7747L22.8588 11.2309L21.8787 11.0326ZM21.4338 14.2254C20.7727 14.5453 20.1334 14.9085 19.5202 15.3127L20.0705 16.1477C20.6469 15.7677 21.2479 15.4263 21.8694 15.1256L21.4338 14.2254ZM19.9653 15.26L16.6184 14.0506L16.2785 14.9911L19.6254 16.2004L19.9653 15.26ZM16.5745 14.037C16.2289 13.9469 15.8709 13.9134 15.5145 13.9376L15.5824 14.9353C15.8312 14.9184 16.0811 14.9418 16.3224 15.0047L16.5745 14.037ZM15.5479 13.9365C14.9671 13.9371 14.3965 14.0904 13.8936 14.3811L14.3941 15.2469C14.7452 15.0439 15.1434 14.9369 15.549 14.9365L15.5479 13.9365ZM13.8936 14.3811C13.3907 14.6718 12.9731 15.0896 12.6826 15.5927L13.5487 16.0927C13.7514 15.7415 14.043 15.4498 14.3941 15.2469L13.8936 14.3811ZM12.685 15.5886L9.36626 21.2136L10.2275 21.7218L13.5463 16.0968L12.685 15.5886ZM9.36477 21.2162C8.97818 21.8803 8.83453 22.6582 8.95841 23.4166L9.94533 23.2554C9.85885 22.7259 9.95913 22.1829 10.229 21.7192L9.36477 21.2162ZM8.95841 23.4166C9.08229 24.175 9.46601 24.8668 10.0438 25.3734L10.7031 24.6214C10.2997 24.2678 10.0318 23.7848 9.94533 23.2554L8.95841 23.4166ZM10.0359 25.3662L12.6937 27.799L13.3689 27.0614L10.7111 24.6286L10.0359 25.3662ZM12.5313 27.4302V29.5818H13.5313V27.4302H12.5313ZM12.6991 29.2081L10.0413 31.5706L10.7056 32.318L13.3635 29.9555L12.6991 29.2081ZM10.0477 31.5649C9.4536 32.075 9.05939 32.7792 8.93508 33.5523L9.9224 33.7111C10.0092 33.1713 10.2844 32.6798 10.6992 32.3236L10.0477 31.5649ZM8.93508 33.5523C8.81076 34.3255 8.96439 35.1177 9.36869 35.7883L10.2251 35.2721C9.94286 34.8039 9.83561 34.2508 9.9224 33.7111L8.93508 33.5523ZM9.36626 35.7843L12.685 41.4093L13.5463 40.9011L10.2275 35.2761L9.36626 35.7843ZM12.6826 41.4052C12.9731 41.9083 13.3907 42.3261 13.8936 42.6168L14.3941 41.751C14.043 41.5481 13.7514 41.2564 13.5487 40.9052L12.6826 41.4052ZM13.8936 42.6168C14.3965 42.9075 14.9671 43.0609 15.5479 43.0615L15.549 42.0615C15.1434 42.061 14.7452 41.954 14.3941 41.751L13.8936 42.6168ZM15.5446 43.0614C15.9046 43.0642 16.2626 43.0083 16.6046 42.8958L16.2923 41.9458C16.0535 42.0243 15.8036 42.0634 15.5523 42.0615L15.5446 43.0614ZM16.6083 42.8946L20.0255 41.7415L19.7058 40.794L16.2886 41.9471L16.6083 42.8946ZM19.588 41.6836C20.1963 42.0896 20.8317 42.4534 21.4898 42.7723L21.9259 41.8725C21.309 41.5735 20.7134 41.2325 20.1433 40.8519L19.588 41.6836ZM21.2178 42.4216L21.935 45.9653L22.9151 45.767L22.1979 42.2232L21.2178 42.4216ZM21.9346 45.9636C22.0861 46.7261 22.5009 47.411 23.1065 47.8985L23.7335 47.1196C23.3108 46.7793 23.0212 46.3011 22.9154 45.7687L21.9346 45.9636ZM23.1065 47.8985C23.7121 48.386 24.4698 48.645 25.2471 48.6301L25.2279 47.6303C24.6853 47.6407 24.1563 47.4599 23.7335 47.1196L23.1065 47.8985ZM25.2375 48.6302H31.875V47.6302H25.2375V48.6302ZM31.8654 48.6301C32.6427 48.645 33.4005 48.386 34.0061 47.8985L33.379 47.1196C32.9562 47.4599 32.4272 47.6407 31.8846 47.6303L31.8654 48.6301ZM34.0061 47.8985C34.6117 47.411 35.0265 46.7261 35.1779 45.9636L34.1971 45.7687C34.0914 46.3011 33.8018 46.7793 33.379 47.1196L34.0061 47.8985ZM35.1776 45.9653L35.8948 42.4216L34.9146 42.2232L34.1975 45.767L35.1776 45.9653ZM35.6225 42.7725C36.2836 42.4526 36.9229 42.0894 37.5361 41.6852L36.9858 40.8502C36.4093 41.2302 35.8084 41.5716 35.1869 41.8723L35.6225 42.7725ZM37.1005 41.7413L40.5036 42.8944L40.8245 41.9473L37.4214 40.7942L37.1005 41.7413ZM40.5079 42.8958C40.8499 43.0083 41.2079 43.0642 41.5679 43.0614L41.5603 42.0615C41.3089 42.0634 41.059 42.0243 40.8202 41.9458L40.5079 42.8958ZM41.5646 43.0615C42.1455 43.0609 42.716 42.9075 43.2189 42.6168L42.7185 41.751C42.3674 41.954 41.9691 42.061 41.5636 42.0615L41.5646 43.0615ZM43.2189 42.6168C43.7218 42.3261 44.1395 41.9083 44.4299 41.4052L43.5639 40.9052C43.3611 41.2564 43.0696 41.5481 42.7185 41.751L43.2189 42.6168ZM44.4313 41.4028L47.6375 35.7778L46.7688 35.2826L43.5625 40.9076L44.4313 41.4028ZM47.6353 35.7817C48.0219 35.1176 48.1655 34.3397 48.0416 33.5813L47.0547 33.7425C47.1412 34.272 47.0409 34.815 46.771 35.2787L47.6353 35.7817ZM48.0416 33.5813C47.9177 32.8229 47.534 32.1312 46.9562 31.6246L46.297 32.3765C46.7003 32.7301 46.9682 33.2131 47.0547 33.7425L48.0416 33.5813ZM46.9642 31.6317L44.3064 29.1989L43.6312 29.9365L46.289 32.3693L46.9642 31.6317ZM41.6118 39.2753L36.7883 37.6441L36.468 38.5914L41.2914 40.2226L41.6118 39.2753ZM36.3053 37.7359C35.2206 38.6532 33.9819 39.3708 32.6466 39.8555L32.9878 40.7955C34.4342 40.2705 35.776 39.4931 36.951 38.4995L36.3053 37.7359ZM32.3267 40.2285L31.3283 45.277L32.3093 45.471L33.3077 40.4225L32.3267 40.2285ZM31.8188 44.874H25.1813V45.874H31.8188V44.874ZM25.6716 45.2759L24.6731 40.2837L23.6925 40.4798L24.691 45.472L25.6716 45.2759ZM24.3589 39.9138C23.0312 39.4144 21.7964 38.6963 20.7056 37.7895L20.0663 38.5584C21.2428 39.5366 22.5747 40.3111 24.0068 40.8498L24.3589 39.9138ZM20.2312 37.6985L15.3937 39.2735L15.7033 40.2244L20.5407 38.6494L20.2312 37.6985ZM15.9791 39.4949L12.6603 33.8699L11.7991 34.378L15.1178 40.003L15.9791 39.4949ZM12.5605 34.4989L16.3855 31.1239L15.7239 30.374L11.8989 33.749L12.5605 34.4989ZM16.5469 30.661C16.2973 29.2635 16.2973 27.8328 16.5469 26.4353L15.5625 26.2595C15.2921 27.7733 15.2921 29.3231 15.5625 30.8369L16.5469 30.661ZM16.3908 25.9772L12.5658 22.5038L11.8936 23.2441L15.7186 26.7175L16.3908 25.9772ZM12.6603 23.128L15.9791 17.503L15.1178 16.9949L11.7991 22.6199L12.6603 23.128ZM15.3883 17.7226L20.2117 19.3539L20.5321 18.4066L15.7086 16.7753L15.3883 17.7226ZM20.6948 19.262C21.7794 18.3447 23.0182 17.6271 24.3534 17.1424L24.0122 16.2024C22.5658 16.7275 21.224 17.5048 20.049 18.4984L20.6948 19.262ZM24.6733 16.7694L25.6718 11.721L24.6908 11.5269L23.6923 16.5754L24.6733 16.7694ZM25.1813 12.124H31.8188V11.124H25.1813V12.124ZM31.3285 11.722L32.3269 16.7142L33.3075 16.5181L32.3091 11.5259L31.3285 11.722ZM32.6412 17.0841C33.9689 17.5836 35.2037 18.3016 36.2944 19.2084L36.9337 18.4395C35.7572 17.4613 34.4253 16.6868 32.9932 16.1482L32.6412 17.0841ZM36.7689 19.2994L41.6064 17.7244L41.2968 16.7735L36.4593 18.3485L36.7689 19.2994ZM41.0209 17.503L44.3397 23.128L45.201 22.6199L41.8822 16.9949L41.0209 17.503ZM44.4395 22.499L40.6145 25.874L41.2761 26.6239L45.1011 23.2489L44.4395 22.499ZM40.4531 26.3369C40.7028 27.7344 40.7028 29.1651 40.4531 30.5626L41.4375 30.7384C41.7079 29.2246 41.7079 27.6749 41.4375 26.161L40.4531 26.3369ZM40.6092 31.0207L44.4342 34.4941L45.1065 33.7538L41.2815 30.2804L40.6092 31.0207ZM44.3397 33.8699L41.0209 39.4949L41.8822 40.003L45.201 34.378L44.3397 33.8699Z" fill="#4C3770" mask="url(#path-2-outside-1_6_217)"/>
<path d="M28.5 36.9375C26.8312 36.9375 25.1999 36.4427 23.8124 35.5155C22.4248 34.5884 21.3434 33.2706 20.7048 31.7289C20.0662 30.1871 19.8991 28.4906 20.2246 26.8539C20.5502 25.2172 21.3538 23.7138 22.5338 22.5338C23.7138 21.3538 25.2172 20.5502 26.8539 20.2246C28.4906 19.8991 30.1871 20.0662 31.7289 20.7048C33.2706 21.3434 34.5884 22.4248 35.5155 23.8124C36.4427 25.1999 36.9375 26.8312 36.9375 28.5C36.9488 29.6112 36.7382 30.7134 36.3182 31.7422C35.8982 32.771 35.2771 33.7056 34.4914 34.4914C33.7056 35.2771 32.771 35.8982 31.7422 36.3182C30.7134 36.7382 29.6112 36.9488 28.5 36.9375ZM28.5 22.875C27.7566 22.8577 27.0174 22.9913 26.3271 23.2679C25.6368 23.5444 25.0098 23.9581 24.484 24.484C23.9581 25.0098 23.5444 25.6368 23.2679 26.3271C22.9913 27.0174 22.8577 27.7566 22.875 28.5C22.8577 29.2434 22.9913 29.9826 23.2679 30.6729C23.5444 31.3632 23.9581 31.9902 24.484 32.516C25.0098 33.0419 25.6368 33.4556 26.3271 33.7321C27.0174 34.0087 27.7566 34.1423 28.5 34.125C29.2434 34.1423 29.9826 34.0087 30.6729 33.7321C31.3632 33.4556 31.9902 33.0419 32.516 32.516C33.0419 31.9902 33.4556 31.3632 33.7321 30.6729C34.0087 29.9826 34.1423 29.2434 34.125 28.5C34.1423 27.7566 34.0087 27.0174 33.7321 26.3271C33.4556 25.6368 33.0419 25.0098 32.516 24.484C31.9902 23.9581 31.3632 23.5444 30.6729 23.2679C29.9826 22.9913 29.2434 22.8577 28.5 22.875Z" fill="#4C3770"/>
</svg>
