<?xml version="1.0" encoding="utf-8"?>
<!-- Generator: Adobe Illustrator 17.0.0, SVG Export Plug-In . SVG Version: 6.00 Build 0)  -->
<!DOCTYPE svg PUBLIC "-//W3C//DTD SVG 1.1//EN" "http://www.w3.org/Graphics/SVG/1.1/DTD/svg11.dtd">
<svg version="1.1" id="Layer_1" xmlns="http://www.w3.org/2000/svg" xmlns:xlink="http://www.w3.org/1999/xlink" x="0px" y="0px"
	 width="81px" height="81px" viewBox="0 0 81 81" enable-background="new 0 0 81 81" xml:space="preserve">
<text transform="matrix(1 0 0 1 420.9448 595.2751)" font-family="'MyriadPro-Regular'" font-size="12">srip-icon-one</text>
<path fill="none" stroke="#FFFFFF" stroke-width="2" stroke-linecap="round" stroke-miterlimit="16" d="M18.926,39.123h8.33
	c0.17,0,0.329-0.087,0.421-0.23l2.603-4.057c0.24-0.375,0.814-0.272,0.909,0.164l2.137,9.8c0.115,0.529,0.872,0.523,0.979-0.008
	l3.73-18.493c0.112-0.555,0.915-0.526,0.986,0.036l3.538,27.808c0.071,0.561,0.872,0.591,0.986,0.038l3.014-14.658
	c0.048-0.232,0.252-0.399,0.49-0.399h14.701"/>
</svg>
