<?xml version="1.0" encoding="utf-8"?>
<!-- Generator: Adobe Illustrator 17.0.0, SVG Export Plug-In . SVG Version: 6.00 Build 0)  -->
<!DOCTYPE svg PUBLIC "-//W3C//DTD SVG 1.1//EN" "http://www.w3.org/Graphics/SVG/1.1/DTD/svg11.dtd">
<svg version="1.1" id="Layer_1" xmlns="http://www.w3.org/2000/svg" xmlns:xlink="http://www.w3.org/1999/xlink" x="0px" y="0px"
	 width="81px" height="81px" viewBox="0 0 81 81" enable-background="new 0 0 81 81" xml:space="preserve">
<path fill="#FFFFFF" d="M24.252,38.972c-0.37-1.067-0.564-2.187-0.577-3.317c0-9.85,9.167-14.328,16.667-6.267
	c7.5-8.062,16.667-3.585,16.667,6.267c-0.013,1.129-0.207,2.249-0.577,3.317h-5.217c-0.91,0-1.717-0.003-2.452,0.325
	c-0.735,0.327-1.275,0.928-1.883,1.605l-0.125,0.14l-1.715,1.905c-0.127,0.142-0.232,0.258-0.323,0.357
	c-0.104-0.122-0.207-0.245-0.308-0.368l-5.917-7.175c-0.233-0.283-0.482-0.583-0.725-0.808c-0.347-0.342-0.803-0.55-1.288-0.588
	c-0.487-0.02-0.965,0.132-1.35,0.43c-0.267,0.193-0.55,0.463-0.817,0.717l-2.55,2.427c-0.785,0.75-0.95,0.877-1.12,0.945
	c-0.172,0.07-0.38,0.09-1.465,0.09H24.252z"/>
<path fill="#FFFFFF" d="M25.348,41.472c2.302,4.27,6.543,8.273,9.93,11.033c2.22,1.813,3.33,2.717,5.063,2.717
	s2.843-0.905,5.063-2.717c3.387-2.76,7.628-6.763,9.93-11.033h-3.933c-1.207,0-1.435,0.025-1.622,0.108
	c-0.187,0.083-0.358,0.237-1.167,1.133l-1.757,1.953c-0.251,0.293-0.522,0.569-0.81,0.827c-0.308,0.258-0.767,0.55-1.388,0.535
	c-0.622-0.013-1.068-0.323-1.367-0.595c-0.276-0.269-0.534-0.556-0.772-0.858l-5.92-7.177l-0.285-0.342
	c-0.092,0.083-0.197,0.183-0.323,0.305l-2.628,2.502c-0.593,0.567-1.118,1.07-1.795,1.34c-0.677,0.272-1.405,0.27-2.225,0.268
	H25.348z"/>
</svg>
