<?xml version="1.0" encoding="utf-8"?>
<!-- Generator: Adobe Illustrator 17.0.0, SVG Export Plug-In . SVG Version: 6.00 Build 0)  -->
<!DOCTYPE svg PUBLIC "-//W3C//DTD SVG 1.1//EN" "http://www.w3.org/Graphics/SVG/1.1/DTD/svg11.dtd">
<svg version="1.1" id="Layer_1" xmlns="http://www.w3.org/2000/svg" xmlns:xlink="http://www.w3.org/1999/xlink" x="0px" y="0px"
	 width="81px" height="81px" viewBox="0 0 81 81" enable-background="new 0 0 81 81" xml:space="preserve">
<path fill="#FFFFFF" d="M38.676,45.221v3.333c0,0.472,0.16,0.868,0.48,1.188s0.715,0.479,1.187,0.478c0.472,0,0.868-0.16,1.188-0.48
	c0.32-0.32,0.479-0.716,0.478-1.187v-3.333h3.333c0.472,0,0.868-0.16,1.188-0.48c0.32-0.32,0.479-0.716,0.478-1.187
	c0-0.472-0.16-0.868-0.48-1.188c-0.32-0.32-0.715-0.479-1.187-0.478h-3.333v-3.333c0-0.472-0.16-0.868-0.48-1.188
	c-0.32-0.32-0.715-0.479-1.187-0.478c-0.472,0-0.868,0.16-1.188,0.48s-0.479,0.716-0.478,1.187v3.333h-3.333
	c-0.472,0-0.868,0.16-1.188,0.48s-0.479,0.716-0.478,1.187c0,0.472,0.16,0.868,0.48,1.188s0.715,0.479,1.187,0.478H38.676z
	 M27.009,56.888c-0.917,0-1.702-0.327-2.355-0.98c-0.653-0.653-0.979-1.438-0.978-2.353v-20c0-0.917,0.327-1.702,0.98-2.355
	c0.653-0.653,1.438-0.979,2.353-0.978h6.667v-3.333c0-0.917,0.327-1.702,0.98-2.355c0.653-0.653,1.438-0.979,2.353-0.978h6.667
	c0.917,0,1.702,0.327,2.355,0.98c0.653,0.653,0.979,1.438,0.978,2.353v3.333h6.667c0.917,0,1.702,0.327,2.355,0.98
	c0.653,0.653,0.979,1.438,0.978,2.353v20c0,0.917-0.327,1.702-0.98,2.355c-0.653,0.653-1.438,0.979-2.353,0.978H27.009z
	 M37.009,30.221h6.667v-3.333h-6.667V30.221z"/>
</svg>
