<?xml version="1.0" encoding="utf-8"?>
<!-- Generator: Adobe Illustrator 17.0.0, SVG Export Plug-In . SVG Version: 6.00 Build 0)  -->
<!DOCTYPE svg PUBLIC "-//W3C//DTD SVG 1.1//EN" "http://www.w3.org/Graphics/SVG/1.1/DTD/svg11.dtd">
<svg version="1.1" id="Layer_1" xmlns="http://www.w3.org/2000/svg" xmlns:xlink="http://www.w3.org/1999/xlink" x="0px" y="0px"
	 width="24px" height="24px" viewBox="0 0 24 24" enable-background="new 0 0 24 24" xml:space="preserve">
<g>
	<polygon fill="#E67225" points="12.001,0.893 15.622,8.206 23.72,9.378 17.861,15.068 19.245,23.107 12.001,19.312 4.757,23.107 
		6.142,15.068 0.28,9.378 8.381,8.206 	"/>
</g>
<g>
	<polygon fill="#999999" points="12.001,0.893 15.622,8.206 23.72,9.378 17.861,15.068 19.245,23.107 12.001,19.312 4.755,23.107 
		6.142,15.068 0.28,9.378 8.381,8.206 	"/>
</g>
<g>
	<polygon fill="#FFFFFF" points="21.685,10.042 14.87,9.01 12,3.199 12,17.947 17.939,21.193 16.843,14.497 	"/>
	<polygon fill="#FFFFFF" points="2.315,10.042 7.157,14.497 6.061,21.193 12,17.947 12,3.199 9.13,9.01 	"/>
</g>
</svg>
