<svg width="1336" height="377" viewBox="0 0 1336 377" fill="none" xmlns="http://www.w3.org/2000/svg">
<circle cx="85.9414" cy="188.336" r="69.2969" fill="white" stroke="#1E1E1E"/>
<path d="M85.9411 161.668C86.5942 161.668 87.2246 161.908 87.7127 162.342C88.2008 162.776 88.5126 163.374 88.5891 164.023L88.6077 164.335V164.481C93.8941 165.074 98.834 167.405 102.652 171.109C106.47 174.813 108.951 179.679 109.704 184.945L109.794 185.668H109.941C110.621 185.669 111.274 185.929 111.769 186.396C112.263 186.862 112.56 187.5 112.6 188.178C112.64 188.857 112.419 189.525 111.983 190.046C111.547 190.567 110.928 190.902 110.253 190.983L109.941 191.001H109.794C109.202 196.288 106.871 201.228 103.167 205.046C99.463 208.864 94.5963 211.344 89.3304 212.097L88.6077 212.188V212.335C88.607 213.014 88.3467 213.668 87.8801 214.162C87.4135 214.657 86.7759 214.954 86.0973 214.994C85.4188 215.034 84.7507 214.813 84.2295 214.377C83.7083 213.94 83.3733 213.322 83.2931 212.647L83.2744 212.335V212.188C77.9881 211.595 73.0482 209.264 69.23 205.56C65.4118 201.857 62.9315 196.99 62.1784 191.724L62.0877 191.001H61.9411C61.2614 191.001 60.6076 190.74 60.1134 190.274C59.6192 189.807 59.3218 189.169 59.2819 188.491C59.2421 187.812 59.4629 187.144 59.8991 186.623C60.3353 186.102 60.9541 185.767 61.6291 185.687L61.9411 185.668H62.0877C62.6804 180.382 65.0116 175.442 68.7153 171.624C72.4191 167.805 77.2859 165.325 82.5517 164.572L83.2744 164.481V164.335C83.2744 163.627 83.5553 162.949 84.0554 162.449C84.5555 161.949 85.2338 161.668 85.9411 161.668ZM85.9411 175.001C82.4048 175.001 79.0135 176.406 76.513 178.907C74.0125 181.407 72.6077 184.798 72.6077 188.335C72.6077 191.871 74.0125 195.262 76.513 197.763C79.0135 200.263 82.4048 201.668 85.9411 201.668C89.4773 201.668 92.8687 200.263 95.3692 197.763C97.8696 195.262 99.2744 191.871 99.2744 188.335C99.2744 184.798 97.8696 181.407 95.3692 178.907C92.8687 176.406 89.4773 175.001 85.9411 175.001Z" fill="#F5711F"/>
<circle cx="85.9414" cy="188.336" r="8" fill="#F5711F"/>
<circle cx="153.569" cy="188.335" r="15.8272" fill="#003180" stroke="white" stroke-width="8"/>
<path d="M1.42969 153.329C6.02668 142.231 12.7646 132.147 21.2588 123.653C29.7529 115.159 39.8369 108.421 50.935 103.824C62.0332 99.2269 73.9281 96.8608 85.9406 96.8608V39.0215" stroke="#1E1E1E"/>
<circle cx="85.942" cy="20.5865" r="20.4264" fill="#003180"/>
<path d="M90.5742 22.9023L85.944 18.2721L81.3138 22.9023" stroke="white" stroke-width="2" stroke-linecap="round" stroke-linejoin="round"/>
<circle cx="666.508" cy="188.336" r="69.2969" fill="white" stroke="#1E1E1E"/>
<path d="M660.294 165.551V171.092H654.849C653.556 171.092 652.516 172.151 652.516 173.467V178.217C652.516 179.534 653.556 180.592 654.849 180.592H660.294V186.134C660.294 187.45 661.334 188.509 662.627 188.509H667.294C668.587 188.509 669.627 187.45 669.627 186.134V180.592H675.072C676.365 180.592 677.405 179.534 677.405 178.217V173.467C677.405 172.151 676.365 171.092 675.072 171.092H669.627V165.551C669.627 164.235 668.587 163.176 667.294 163.176H662.627C661.334 163.176 660.294 164.235 660.294 165.551ZM692.931 201.987C694.662 200.691 695.032 198.217 693.758 196.455C692.484 194.694 690.054 194.318 688.323 195.614L676.685 204.342H664.96C664.105 204.342 663.405 203.63 663.405 202.759C663.405 201.888 664.105 201.176 664.96 201.176H672.738C674.459 201.176 675.849 199.761 675.849 198.009C675.849 196.258 674.459 194.842 672.738 194.842H657.348C654.519 194.842 651.777 195.822 649.57 197.613L645.205 201.176H641.627C639.906 201.176 638.516 202.591 638.516 204.342V210.676C638.516 212.427 639.906 213.842 641.627 213.842H672.787C675.606 213.842 678.358 212.922 680.633 211.22L692.941 201.987H692.931Z" fill="#F5711F"/>
<circle cx="734.566" cy="188.335" r="15.8272" fill="#003180" stroke="white" stroke-width="8"/>
<path d="M582.004 153.329C586.601 142.231 593.339 132.147 601.833 123.653C610.327 115.159 620.411 108.421 631.509 103.824C642.607 99.2269 654.502 96.8608 666.515 96.8608V39.0215" stroke="#1E1E1E"/>
<circle cx="666.938" cy="20.5865" r="20.4264" fill="#003180"/>
<path d="M671.57 22.9023L666.94 18.2721L662.31 22.9023" stroke="white" stroke-width="2" stroke-linecap="round" stroke-linejoin="round"/>
<circle cx="1247.62" cy="188.336" r="69.2969" fill="white" stroke="#1E1E1E"/>
<circle cx="1315.57" cy="188.335" r="15.8272" fill="#003180" stroke="white" stroke-width="8"/>
<g clip-path="url(#clip0_344_2177)">
<path d="M1266.73 163.336L1275.53 178.961H1265.7L1258.97 163.336H1266.73ZM1254.28 163.336L1261.01 178.961H1234.04L1240.77 163.336H1254.28ZM1228.33 163.336H1236.08L1229.36 178.961H1219.53L1228.33 163.336ZM1219.53 182.086H1229.32L1241.28 206.666C1241.42 206.969 1241.01 207.242 1240.79 206.988L1219.53 182.086ZM1233.94 182.086H1261.12L1247.8 213.16C1247.7 213.395 1247.36 213.395 1247.26 213.16L1233.94 182.086ZM1253.78 206.666L1265.74 182.086H1275.53L1254.26 206.979C1254.04 207.242 1253.63 206.969 1253.78 206.666Z" fill="#F5711F"/>
</g>
<path d="M1163.12 153.329C1167.72 142.231 1174.46 132.147 1182.95 123.653C1191.44 115.159 1201.53 108.421 1212.63 103.824C1223.72 99.2269 1235.62 96.8608 1247.63 96.8608V39.0215" stroke="#1E1E1E"/>
<circle cx="1247.94" cy="20.5865" r="20.4264" fill="#003180"/>
<path d="M1252.57 22.9023L1247.94 18.2721L1243.31 22.9023" stroke="white" stroke-width="2" stroke-linecap="round" stroke-linejoin="round"/>
<circle cx="69.7969" cy="69.7969" r="69.2969" transform="matrix(1 0 0 -1 306.074 258.133)" fill="white" stroke="#1E1E1E"/>
<path d="M375.82 195.941C385.891 195.941 394.055 187.778 394.055 177.707C394.055 167.636 385.891 159.473 375.82 159.473C365.75 159.473 357.586 167.636 357.586 177.707C357.586 187.778 365.75 195.941 375.82 195.941Z" fill="#F5711F"/>
<path d="M387.842 177.708C387.842 184.349 382.459 189.733 375.818 189.733C369.177 189.733 363.793 184.349 363.793 177.708C363.793 171.067 369.177 165.684 375.818 165.684C382.459 165.684 387.842 171.067 387.842 177.708Z" stroke="white" stroke-width="2" stroke-linecap="round" stroke-linejoin="round"/>
<path d="M365.945 193.049L362.793 216.78L375.818 208.966L388.842 216.78L385.69 193.023" fill="#F5711F"/>
<circle cx="443.566" cy="188.335" r="15.8272" fill="#003180" stroke="white" stroke-width="8"/>
<path d="M291.359 223.341C295.956 234.439 302.694 244.523 311.188 253.017C319.683 261.511 329.767 268.249 340.865 272.846C351.963 277.443 363.858 279.809 375.87 279.809V337.648" stroke="#1E1E1E"/>
<circle cx="20.4264" cy="20.4264" r="20.4264" transform="matrix(1 0 0 -1 355.512 376.012)" fill="#003180"/>
<path d="M380.57 353.27L375.94 357.9L371.31 353.27" stroke="white" stroke-width="2" stroke-linecap="round" stroke-linejoin="round"/>
<circle cx="69.7969" cy="69.7969" r="69.2969" transform="matrix(1 0 0 -1 887.188 258.133)" fill="white" stroke="#1E1E1E"/>
<path d="M956.933 215.349C956.933 215.349 978.894 204.682 978.894 188.682V170.016L956.933 162.016L934.973 170.016V188.682C934.973 204.682 956.933 215.349 956.933 215.349Z" fill="#F5711F"/>
<path d="M957.212 207.815C957.109 207.869 957.017 207.917 956.935 207.959C956.853 207.917 956.76 207.869 956.657 207.815C956.198 207.575 955.539 207.217 954.747 206.749C953.161 205.811 951.05 204.439 948.945 202.697C944.683 199.171 940.68 194.331 940.68 188.683V175.115L956.935 169.352L973.189 175.115V188.683C973.189 194.331 969.187 199.171 964.925 202.697C962.819 204.439 960.709 205.811 959.122 206.749C958.33 207.217 957.671 207.575 957.212 207.815Z" stroke="white" stroke-width="2" stroke-linecap="round" stroke-linejoin="round"/>
<circle cx="1024.57" cy="188.335" r="15.8272" fill="#003180" stroke="white" stroke-width="8"/>
<path d="M872.473 223.341C877.07 234.439 883.808 244.523 892.302 253.017C900.796 261.511 910.88 268.249 921.978 272.846C933.076 277.443 944.971 279.809 956.983 279.809V337.648" stroke="#1E1E1E"/>
<circle cx="20.4264" cy="20.4264" r="20.4264" transform="matrix(1 0 0 -1 936.512 376.012)" fill="#003180"/>
<path d="M961.57 353.27L956.94 357.9L952.31 353.27" stroke="white" stroke-width="2" stroke-linecap="round" stroke-linejoin="round"/>
<defs>
<clipPath id="clip0_344_2177">
<rect width="56" height="50" fill="white" transform="translate(1219.53 163.336)"/>
</clipPath>
</defs>
</svg>
