<svg width="14" height="17" viewBox="0 0 14 17" fill="none" xmlns="http://www.w3.org/2000/svg">
<path d="M6.37 0.134441L0.925556 2.55828C0.365556 2.80768 0 3.36883 0 3.98453V7.64756C0 11.9731 2.98667 16.018 7 17C11.0133 16.018 14 11.9731 14 7.64756V3.98453C14 3.36883 13.6344 2.80768 13.0744 2.55828L7.63 0.134441C7.23333 -0.0448138 6.76667 -0.0448138 6.37 0.134441ZM4.89222 11.7704L2.87778 9.75186C2.80577 9.67971 2.74865 9.59405 2.70968 9.49977C2.67071 9.40549 2.65065 9.30445 2.65065 9.20241C2.65065 9.10036 2.67071 8.99932 2.70968 8.90504C2.74865 8.81077 2.80577 8.72511 2.87778 8.65295C2.94979 8.5808 3.03527 8.52356 3.12936 8.48451C3.22344 8.44546 3.32428 8.42536 3.42611 8.42536C3.52795 8.42536 3.62878 8.44546 3.72287 8.48451C3.81695 8.52356 3.90244 8.5808 3.97444 8.65295L5.44444 10.1182L10.0178 5.53547C10.0898 5.46332 10.1753 5.40608 10.2694 5.36703C10.3634 5.32798 10.4643 5.30788 10.5661 5.30788C10.6679 5.30788 10.7688 5.32798 10.8629 5.36703C10.957 5.40608 11.0424 5.46332 11.1144 5.53547C11.1865 5.60763 11.2436 5.69329 11.2825 5.78757C11.3215 5.88184 11.3416 5.98289 11.3416 6.08493C11.3416 6.18697 11.3215 6.28802 11.2825 6.38229C11.2436 6.47657 11.1865 6.56223 11.1144 6.63438L5.98889 11.7704C5.91693 11.8427 5.83146 11.9 5.73737 11.9391C5.64328 11.9782 5.54242 11.9984 5.44056 11.9984C5.33869 11.9984 5.23783 11.9782 5.14374 11.9391C5.04965 11.9 4.96418 11.8427 4.89222 11.7704Z" fill="#3FBA2B"/>
</svg>
