<svg width="25" height="25" viewBox="0 0 25 25" fill="none" xmlns="http://www.w3.org/2000/svg">
<g clip-path="url(#clip0_337_1373)">
<path d="M11.9461 0.670129C5.60769 0.971927 0.605827 6.25057 0.625055 12.5961C0.63091 14.5288 1.0975 16.353 1.92058 17.9649L0.656854 24.0991C0.588493 24.431 0.887765 24.7215 1.2174 24.6434L7.22826 23.2193C8.77255 23.9886 10.5071 24.4329 12.3429 24.4609C18.8213 24.5599 24.2232 19.4158 24.4251 12.9398C24.6415 5.99796 18.9122 0.338371 11.9461 0.670129ZM19.1183 19.1496C17.358 20.9099 15.0175 21.8794 12.528 21.8794C11.0704 21.8794 9.67478 21.5523 8.37995 20.9074L7.54286 20.4904L3.85758 21.3635L4.63331 17.5978L4.22091 16.7902C3.54872 15.4738 3.2079 14.0503 3.2079 12.5593C3.2079 10.0698 4.17734 7.7293 5.93767 5.96892C7.68228 4.22431 10.061 3.23908 12.5282 3.23908C15.0177 3.23914 17.358 4.20858 19.1184 5.96886C20.8787 7.72919 21.8482 10.0696 21.8482 12.5591C21.8482 15.0264 20.8629 17.4051 19.1183 19.1496Z" fill="#1E1E1E"/>
<path d="M18.3053 15.1411L15.9997 14.4791C15.6966 14.3921 15.3702 14.4781 15.1493 14.7031L14.5855 15.2776C14.3478 15.5198 13.987 15.5976 13.6724 15.4703C12.5817 15.0289 10.2874 12.989 9.70148 11.9687C9.53244 11.6743 9.56039 11.3063 9.76794 11.0378L10.2602 10.401C10.453 10.1514 10.4937 9.81635 10.3662 9.52793L9.39618 7.33402C9.16383 6.80854 8.49234 6.65558 8.05365 7.02659C7.41016 7.57084 6.64665 8.39788 6.55384 9.31412C6.3902 10.9295 7.08299 12.9659 9.7028 15.411C12.7294 18.2359 15.1531 18.6091 16.7311 18.2268C17.6262 18.01 18.3414 17.1409 18.7929 16.4293C19.1006 15.9441 18.8576 15.2997 18.3053 15.1411Z" fill="#1E1E1E"/>
</g>
<defs>
<clipPath id="clip0_337_1373">
<rect width="24" height="24" fill="white" transform="translate(0.527344 0.65625)"/>
</clipPath>
</defs>
</svg>
