<svg width="56" height="56" viewBox="0 0 56 56" fill="none" xmlns="http://www.w3.org/2000/svg">
<rect width="56" height="56" rx="5" fill="#EDE3FF"/>
<path d="M19.6666 28.0013V23.8346H36.3333V28.0013H19.6666ZM19.6666 19.668V15.5013H36.3333V19.668H19.6666ZM15.4999 32.168H31.1249C32.1319 32.168 33.0694 32.3853 33.9374 32.8201C34.8055 33.2548 35.5346 33.8707 36.1249 34.668L40.4999 40.3971V11.3346H15.4999V32.168ZM15.4999 44.668H38.5208L32.8437 37.2201C32.6353 36.9423 32.3839 36.7256 32.0895 36.5701C31.7951 36.4145 31.4735 36.336 31.1249 36.3346H15.4999V44.668ZM40.4999 48.8346H15.4999C14.3541 48.8346 13.3735 48.427 12.5583 47.6117C11.743 46.7964 11.3346 45.8152 11.3333 44.668V11.3346C11.3333 10.1888 11.7416 9.20825 12.5583 8.39297C13.3749 7.57769 14.3555 7.16936 15.4999 7.16797H40.4999C41.6458 7.16797 42.627 7.5763 43.4437 8.39297C44.2603 9.20964 44.668 10.1902 44.6666 11.3346V44.668C44.6666 45.8138 44.2589 46.7951 43.4437 47.6117C42.6284 48.4284 41.6471 48.836 40.4999 48.8346Z" fill="#4C3770"/>
</svg>
