<svg width="808" height="98" viewBox="0 0 808 98" fill="none" xmlns="http://www.w3.org/2000/svg">
<path d="M0 34.3435H21.4238C24.2474 34.3435 27.0055 33.4927 29.3384 31.9021L37.9171 26.053C40.8657 24.0426 44.8023 24.2881 47.4783 26.6493L52.2152 30.8288C54.7821 33.0937 58.0875 34.3435 61.5107 34.3435H79.6145L85.0783 0M85.0783 0L93.6642 97.5669L101.596 36.8871M85.0783 0L80.5491 28.3759M85.0783 0L87.8946 31.6817M101.578 36.7135L141.712 34.4082C142.459 34.3653 143.195 34.2154 143.899 33.9632L181.405 20.5175C183.209 19.8708 185.188 19.9103 186.965 20.6285L219.484 33.7746C220.413 34.1504 221.407 34.3435 222.409 34.3435H251.332M503.791 34.3435H525.214C528.038 34.3435 530.796 33.4927 533.129 31.9021L541.708 26.053C544.656 24.0426 548.593 24.2881 551.269 26.6493L556.006 30.8288C558.573 33.0937 561.878 34.3435 565.301 34.3435H583.405L588.869 0L597.455 97.5669L603.708 41.2869C604.147 37.334 607.488 34.3435 611.466 34.3435H645.272C646.169 34.3435 647.061 34.1886 647.906 33.8857L685.196 20.5175C687 19.8708 688.979 19.9103 690.755 20.6285L723.275 33.7746C724.204 34.1504 725.169 34.3435 726.172 34.3435H807.015M251.833 34.3435H273.257C276.08 34.3435 278.838 33.4927 281.171 31.9021L289.75 26.053C292.699 24.0426 296.635 24.2881 299.311 26.6493L304.048 30.8288C306.615 33.0937 309.921 34.3435 313.344 34.3435H331.448L336.911 0L345.497 97.5669L351.75 41.2869C352.19 37.334 355.531 34.3435 359.508 34.3435H393.314C394.212 34.3435 395.103 34.1886 395.948 33.8857L433.238 20.5175C435.042 19.8708 437.021 19.9103 438.798 20.6285L471.317 33.7746C472.247 34.1504 473.24 34.3435 474.242 34.3435H503.165" stroke="#FE6B00" stroke-width="1.25041" stroke-linecap="square" stroke-linejoin="round"/>
</svg>
