<?xml version="1.0" encoding="utf-8"?>
<!-- Generator: Adobe Illustrator 17.0.0, SVG Export Plug-In . SVG Version: 6.00 Build 0)  -->
<!DOCTYPE svg PUBLIC "-//W3C//DTD SVG 1.1//EN" "http://www.w3.org/Graphics/SVG/1.1/DTD/svg11.dtd">
<svg version="1.1" id="Layer_1" xmlns="http://www.w3.org/2000/svg" xmlns:xlink="http://www.w3.org/1999/xlink" x="0px" y="0px"
	 width="349.722px" height="595.28px" viewBox="0 0 349.722 595.28" enable-background="new 0 0 349.722 595.28"
	 xml:space="preserve">
<g>
	<g>
		<path fill="#141C4D" d="M340.227,274.412L75.319,9.51C69.192,3.378,61.013,0,52.292,0s-16.9,3.378-23.027,9.51L9.756,29.014
			c-12.694,12.709-12.694,33.364,0,46.054l222.449,222.449L9.51,520.212C3.383,526.344,0,534.518,0,543.234
			c0,8.726,3.383,16.9,9.51,23.037l19.509,19.499c6.132,6.132,14.306,9.51,23.027,9.51s16.9-3.378,23.027-9.51l265.154-265.144
			c6.141-6.151,9.515-14.364,9.495-23.095C349.741,288.767,346.368,280.559,340.227,274.412z"/>
	</g>
</g>
</svg>
