<?xml version="1.0" encoding="utf-8"?>
<!-- Generator: Adobe Illustrator 17.0.0, SVG Export Plug-In . SVG Version: 6.00 Build 0)  -->
<!DOCTYPE svg PUBLIC "-//W3C//DTD SVG 1.1//EN" "http://www.w3.org/Graphics/SVG/1.1/DTD/svg11.dtd">
<svg version="1.1" id="Layer_1" xmlns="http://www.w3.org/2000/svg" xmlns:xlink="http://www.w3.org/1999/xlink" x="0px" y="0px"
	 width="349.722px" height="595.28px" viewBox="-387.221 123.305 349.722 595.28"
	 enable-background="new -387.221 123.305 349.722 595.28" xml:space="preserve">
<g>
	<g>
		<path fill="#FFFFFF" d="M-46.994,397.717l-264.908-264.902c-6.127-6.132-14.306-9.51-23.027-9.51c-8.721,0-16.9,3.378-23.027,9.51
			l-19.509,19.504c-12.694,12.709-12.694,33.364,0,46.054l222.449,222.449l-222.695,222.695c-6.127,6.132-9.51,14.306-9.51,23.022
			c0,8.726,3.383,16.9,9.51,23.037l19.509,19.499c6.132,6.132,14.306,9.51,23.027,9.51c8.721,0,16.9-3.378,23.027-9.51
			l265.154-265.144c6.141-6.151,9.515-14.364,9.495-23.095C-37.48,412.072-40.853,403.864-46.994,397.717z"/>
	</g>
</g>
</svg>
