<?xml version="1.0" encoding="utf-8"?>
<!-- Generator: Adobe Illustrator 17.0.0, SVG Export Plug-In . SVG Version: 6.00 Build 0)  -->
<!DOCTYPE svg PUBLIC "-//W3C//DTD SVG 1.1//EN" "http://www.w3.org/Graphics/SVG/1.1/DTD/svg11.dtd">
<svg version="1.1" id="Layer_1" xmlns="http://www.w3.org/2000/svg" xmlns:xlink="http://www.w3.org/1999/xlink" x="0px" y="0px"
	 width="15.406px" height="15.219px" viewBox="0 0 15.406 15.219" enable-background="new 0 0 15.406 15.219" xml:space="preserve">
<path fill="#81C2BF" d="M7.703,6.228c-0.764,0-1.381,0.617-1.381,1.381s0.617,1.381,1.381,1.381c0.764,0,1.381-0.617,1.381-1.381
	S8.467,6.228,7.703,6.228z M7.703,9.911c-1.271,0-2.302-1.031-2.302-2.302s1.031-2.302,2.302-2.302c1.271,0,2.302,1.031,2.302,2.302
	S8.974,9.911,7.703,9.911z M7.703,4.156c-2.302,0-4.268,1.432-5.064,3.453c0.796,2.021,2.762,3.453,5.064,3.453
	c2.302,0,4.268-1.432,5.064-3.453C11.971,5.588,10.005,4.156,7.703,4.156z"/>
</svg>
